<?xml version="1.0" encoding="utf-8"?>
<!-- Generator: Adobe Illustrator 26.2.1, SVG Export Plug-In . SVG Version: 6.00 Build 0)  -->
<svg version="1.1"
	 id="svg241" inkscape:version="0.92.2 (5c3e80d, 2017-08-06)" sodipodi:docname="Equestrian Flag QTMarx SVG.svg" xmlns:cc="http://creativecommons.org/ns#" xmlns:dc="http://purl.org/dc/elements/1.1/" xmlns:inkscape="http://www.inkscape.org/namespaces/inkscape" xmlns:rdf="http://www.w3.org/1999/02/22-rdf-syntax-ns#" xmlns:sodipodi="http://sodipodi.sourceforge.net/DTD/sodipodi-0.dtd" xmlns:svg="http://www.w3.org/2000/svg"
	 xmlns="http://www.w3.org/2000/svg" xmlns:xlink="http://www.w3.org/1999/xlink" x="0px" y="0px" viewBox="0 0 500 500"
	 style="enable-background:new 0 0 500 500;" xml:space="preserve">
<style type="text/css">
	.st0{fill:#E1E1E1;}
	.st1{fill:#B9E3F4;}
	.st2{display:none;}
	.st3{display:inline;fill:none;stroke:#000000;stroke-width:0.75;stroke-miterlimit:10;}
	.st4{display:inline;fill:#8433E5;stroke:#000000;stroke-width:0.75;stroke-miterlimit:10;}
	.st5{display:inline;fill:#2D7FDC;stroke:#000000;stroke-width:0.75;stroke-miterlimit:10;}
	.st6{display:inline;fill:#FFFAFF;stroke:#000000;stroke-width:0.75;stroke-miterlimit:10;}
	.st7{display:inline;fill:#68C0B1;stroke:#000000;stroke-width:0.75;stroke-miterlimit:10;}
	.st8{display:inline;fill:#F4FAFB;stroke:#000000;stroke-width:0.75;stroke-miterlimit:10;}
	.st9{fill:#88D5F4;}
	.st10{fill:#FFFFFF;}
	.st11{fill:#FDFDFD;}
	.st12{fill:#B27AEF;}
	.st13{fill:#FFB92D;}
	.st14{fill:#F9FA8F;}
	.st15{fill:none;stroke:#000000;stroke-width:0.6851;stroke-miterlimit:10;}
	.st16{fill:#8433E5;stroke:#000000;stroke-width:0.6851;stroke-miterlimit:10;}
	.st17{fill:#2D7FDC;stroke:#000000;stroke-width:0.6851;stroke-miterlimit:10;}
	.st18{fill:#FFFAFF;stroke:#000000;stroke-width:0.6851;stroke-miterlimit:10;}
	.st19{fill:#68C0B1;stroke:#000000;stroke-width:0.6851;stroke-miterlimit:10;}
	.st20{fill:#F4FAFB;stroke:#000000;stroke-width:0.6851;stroke-miterlimit:10;}
	.st21{fill:url(#SVGID_1_);}
</style>
<sodipodi:namedview  bordercolor="#666666" borderopacity="1" gridtolerance="10" guidetolerance="10" id="namedview243" inkscape:current-layer="svg241" inkscape:cx="-413.24164" inkscape:cy="369.67422" inkscape:pageopacity="0" inkscape:pageshadow="2" inkscape:window-height="986" inkscape:window-maximized="1" inkscape:window-width="1920" inkscape:window-x="-11" inkscape:window-y="-11" inkscape:zoom="0.2979798" objecttolerance="10" pagecolor="#ffffff" showgrid="false">
	</sodipodi:namedview>
<path class="st0" d="M470,500H30c-16.6,0-30-13.4-30-30V30C0,13.4,13.4,0,30,0h440c16.6,0,30,13.4,30,30v440
	C500,486.6,486.6,500,470,500z"/>
<path class="st1" d="M470.7,500h-440c-16.6,0-30-13.4-30-30v-72.8c0-16.6,13.4-30,30-30h440c16.6,0,30,13.4,30,30V470
	C500.7,486.6,487.3,500,470.7,500z"/>
<g id="Layer_1" transform="translate(0,-294)" class="st2">
</g>
<g id="Luna" transform="translate(0,-294)" class="st2">
	<path id="path118" inkscape:connector-curvature="0" class="st3" d="M265.8,395.5c-0.7-0.1-1.3-0.3-1.7-0.8s-0.5-1.2,0-1.7
		c1-0.9,2.8,0.4,3.4,1.2c0.7,0.8,0.7,1.9,0.3,2.9c-0.9,2.1-3.6,2.5-5,0.7c-1.2-1.6-1.9-4.2-1.2-6.1c0.6-1.8,3.3-2.7,5-2.5
		c1.3,0.1,3,0.9,3.9,1.9c1.9,2.2,1,6.2,0.4,8.7c-0.3,1.5-0.4,3-0.5,4.4s-0.1,2.9,0.1,4.3"/>
	<path id="path120" inkscape:connector-curvature="0" class="st3" d="M256.3,383.4c-0.8-0.2-2.2-0.9-2-1.9c0.2-0.9,1.2-1.3,2-0.9
		c0.5,0.3,1,0.9,1.3,1.4c0.4,0.8,0.5,3-0.3,3.7c-0.9,0.7-2.4,0.7-3.3,0.1c-1.8-1.2-3.5-3.6-2.7-5.9c0.4-1.1,1-2.3,2-3
		c1.5-1,4.1-0.4,5.6,0.6c1.6,1.1,2.5,2.8,2.5,4.7c0,1.1,0.1,2.3-0.1,3.4c-0.2,1.1-0.8,2-1.1,3.1c-0.3,1-0.2,2.2-0.2,3.3
		c0.1,0.9,0.3,2,1,2.6c0.2,0.2,0.4,0.3,0.6,0.5"/>
	<path id="path122" inkscape:connector-curvature="0" class="st3" d="M246.2,371.2c-0.8,0.3-1.5,0.2-2-0.5s-0.6-1.6,0-2.2
		c1.4-1.1,3.2-0.1,3.9,1.3c0.5,0.9,0.5,1.9,0.3,2.9c-0.2,0.9-0.6,1.9-1.5,2.4c-1,0.5-2-0.1-2.8-0.7c-1.1-0.8-2.1-1.9-2.4-3.3
		c-0.2-0.9-0.1-1.7,0-2.6c0-1.4,0.8-2.8,2-3.5c1.1-0.6,3-0.8,4.2-0.3c1.2,0.4,2.3,1.7,2.8,2.8c0.7,1.7,0.5,3.5,0.5,5.2
		c0,1.6,0,3.2-0.2,4.8c-0.1,1.3-0.5,2.7,0.3,3.9"/>
	<path id="path124" inkscape:connector-curvature="0" class="st4" d="M234.6,291.7c3-16.1,14-61.3,36.6-76.8
		c27.1-18.6,67.2-12.1,72.6-13.3c5.4-1.1,15.7-6.5,21.4-11.3c-9.5,14.1-31.6,25.7-44.6,30.8s-41.2,14.7-46.3,17
		s-27.7,14.4-30.5,40.1C240.9,303.9,232.8,300.3,234.6,291.7z"/>
	<path id="path126" inkscape:connector-curvature="0" class="st5" d="M341.2,436.5C321.7,416,294.6,389.1,270,381
		c-24.6-8.2-8.9-18.6,3.7-11.3C286.4,377,334.1,419.8,341.2,436.5z"/>
	<polygon id="polygon128" class="st5" points="281.6,413 287.8,409.5 334.3,463.8 	"/>
	<path id="path130" inkscape:connector-curvature="0" class="st5" d="M175.5,309.9c-5.3,38.6,47.7,95.1,73,103.1
		c2.7-0.9-15.2-24.7-11.2-35.9c3.8-2.5,7.3,1.8,9.6,0.5s-4.2-4.4-5.3-6.8s-16.1-22.5-13.8-1.4c-3.3-9-16-28-12.7-4.7
		c-4.3-17.2-23.8-42-15.3-9.8C188.9,342.2,181.2,305.2,175.5,309.9L175.5,309.9z"/>
	<path id="path132" inkscape:connector-curvature="0" class="st5" d="M299.7,252.7c-9.6,5.1-16.7,23.9-18.4,34.7
		c-1.7,10.8-8.8,22.4-14.1,21.3c-5.4-1.1-13.3-14.8-14.7-22.4s-6.2,2.8-4.2,8.3s7.1,26.8,21.2,26.3c14.1-0.6,18.1-35.3,18.4-38.4
		C288.1,279.3,291.9,261.2,299.7,252.7L299.7,252.7z"/>
	<path id="path134" inkscape:connector-curvature="0" class="st5" d="M346.1,213.7c-68.3,20.4-116.4,56.5-116.4,107.7
		c0,26.9,14.1,68.6,44.9,90l13.6,16.4c0,0-3-6.6-4.4-12.8c0,0,7.2-3.6,8.2-5.6c0.8-1.8-5.6-5.6-2.4-4.8c10.1,2.6-15-13-16.9-22.4
		c-0.4-2.1,8-13.2,6.9-20s-13.4-17.4-19.1-20.8c-18.1-10.8-13.7-50,2.8-69.5C285,246.3,326,223.3,346.1,213.7L346.1,213.7z"/>
	<path id="path136" inkscape:connector-curvature="0" class="st5" d="M264.4,367.7c16.7,8.8,29.8,9,35.4,5.9
		c8.7-4.8-13.2-28-26-34.7c5.8,7.7,21.7,22.6,20.8,28.3c-0.6,3.7-17.8-1.1-28.8-8.2"/>
	<path id="path138" inkscape:connector-curvature="0" class="st5" d="M283.5,414.9c4.9,3.1,32.8,14.8,35.3,14.8l-3.2-10.2
		c-2.3-1-13.1-9.4-15.8-13.1s-5.5-9.6-16.7-4.5"/>
	<line id="line140" class="st3" x1="309.4" y1="418.3" x2="316.4" y2="422.2"/>
	<path id="path142" inkscape:connector-curvature="0" class="st4" d="M299.7,414.8l-4.5-5.9l-1.9-0.1c-1.3,1.2-2.7,3.3-1.7,6.2
		C294.5,415.7,297.5,415.6,299.7,414.8z"/>
	<path id="path144" inkscape:connector-curvature="0" class="st6" d="M293.3,408.7L283,408c2.3,3.8,5.4,5.9,8.6,6.9
		C290.6,412,292.1,409.9,293.3,408.7L293.3,408.7z"/>
	<path id="path146" inkscape:connector-curvature="0" class="st4" d="M270.2,404.2c0.1-1.5,0.2-3,0.5-4.4c0.6-2.5,1.6-6.5-0.4-8.7
		c-0.9-1-2.6-1.8-3.9-1.9c-1.7-0.2-4.4,0.8-5,2.5c-0.4,1-0.3,2.2,0,3.4l0.1,0.1l-0.1-0.1c0.3,1,0.7,2,1.3,2.7c1.4,1.8,4,1.5,5-0.7
		c0.4-0.9,0.4-2-0.3-2.9c-0.6-0.8-2.4-2.2-3.4-1.2c-0.5,0.5-0.4,1.2,0,1.7s1.1,0.7,1.7,0.8c-0.7-0.1-1.3-0.3-1.7-0.8s-0.5-1.2,0-1.7
		c1-0.9,2.8,0.4,3.4,1.2c0.7,0.8,0.7,1.9,0.3,2.9c-0.9,2.1-3.6,2.5-5,0.7c-0.6-0.7-1-1.7-1.3-2.7c-0.2-0.1-0.3-0.3-0.5-0.4
		c-0.7-0.7-0.9-1.7-1-2.6c-0.1-1-0.1-2.3,0.2-3.3c0.3-1.1,0.9-2,1.1-3.1c0.2-1.1,0.1-2.3,0.1-3.4c0-1.9-1-3.6-2.5-4.7
		c-1.4-1-4-1.6-5.6-0.6c-1,0.7-1.6,1.9-2,3c-0.2,0.4-0.2,0.9-0.2,1.4c0,0,0,0.1,0.1,0.1c0,0,0-0.1-0.1-0.1c0.1,1.8,1.5,3.6,2.9,4.5
		c0.9,0.6,2.4,0.6,3.3-0.1c0.8-0.7,0.6-2.9,0.3-3.7c-0.2-0.5-0.8-1.1-1.3-1.4c-0.8-0.4-1.8,0-2,0.9c-0.2,1,1.2,1.7,2,1.9
		c-0.8-0.2-2.2-0.9-2-1.9c0.2-0.9,1.2-1.3,2-0.9c0.5,0.3,1,0.9,1.3,1.4c0.4,0.8,0.5,3-0.3,3.7c-0.9,0.7-2.4,0.7-3.3,0.1
		c-1.5-0.9-2.8-2.7-2.9-4.5c-0.7-1.2-0.4-2.5-0.2-3.8c0.2-1.6,0.2-3.2,0.2-4.8c0-1.8,0.2-3.6-0.5-5.2c-0.5-1.1-1.6-2.4-2.8-2.8
		c-1.2-0.5-3.1-0.3-4.2,0.3c-1.2,0.7-2,2.1-2,3.5c0,0.7-0.1,1.5,0,2.2c0.4,0.9,0.9,1.8,1.3,2.7c0.3,0.4,0.7,0.7,1.1,1
		c0.8,0.6,1.9,1.2,2.8,0.7c0.9-0.5,1.3-1.5,1.5-2.4c0.3-1,0.2-2-0.3-2.9c-0.7-1.4-2.5-2.5-3.9-1.3c-0.7,0.6-0.5,1.6,0,2.2
		c0.5,0.8,1.2,0.8,2,0.5c-0.8,0.3-1.5,0.2-2-0.5s-0.6-1.6,0-2.2c1.4-1.1,3.2-0.1,3.9,1.3c0.5,0.9,0.5,1.9,0.3,2.9
		c-0.2,0.9-0.6,1.9-1.5,2.4c-1,0.5-2-0.1-2.8-0.7c-0.4-0.3-0.8-0.6-1.1-1c6.6,13.1,15.6,25.5,27.4,34.9
		C270.1,406.9,270.1,405.6,270.2,404.2L270.2,404.2z"/>
</g>
<g id="Celestia" transform="translate(0,-294)" class="st2">
	<path id="path149" inkscape:connector-curvature="0" class="st3" d="M473.6,258.5c0.7,0.1,1.3,0.3,1.7,0.8c0.4,0.5,0.5,1.2,0,1.7
		c-1,0.9-2.8-0.4-3.4-1.2c-0.7-0.8-0.7-1.9-0.3-2.9c0.9-2.1,3.6-2.5,5-0.7c1.2,1.6,1.9,4.2,1.2,6.1c-0.6,1.8-3.3,2.7-5,2.5
		c-1.3-0.1-3-0.9-3.9-1.9c-1.9-2.2-1-6.2-0.4-8.7c0.3-1.5,0.4-3,0.5-4.4s0.1-2.9-0.1-4.3"/>
	<path id="path151" inkscape:connector-curvature="0" class="st3" d="M483.1,270.6c0.8,0.2,2.2,0.9,2,1.9c-0.2,0.9-1.2,1.3-2,0.9
		c-0.5-0.3-1-0.9-1.3-1.4c-0.4-0.8-0.5-3,0.3-3.7c0.9-0.7,2.4-0.7,3.3-0.1c1.8,1.2,3.5,3.6,2.7,5.9c-0.4,1.1-1,2.3-2,3
		c-1.5,1-4.1,0.4-5.6-0.6c-1.6-1.1-2.5-2.8-2.5-4.7c0-1.1-0.1-2.3,0.1-3.4s0.8-2,1.1-3.1c0.3-1,0.2-2.2,0.2-3.3
		c-0.1-0.9-0.3-2-1-2.6c-0.2-0.2-0.4-0.3-0.6-0.5"/>
	<path id="path153" inkscape:connector-curvature="0" class="st3" d="M493.2,282.9c0.8-0.3,1.5-0.2,2,0.5s0.6,1.6,0,2.2
		c-1.4,1.1-3.2,0.1-3.9-1.3c-0.5-0.9-0.5-1.9-0.3-2.9c0.2-0.9,0.6-1.9,1.5-2.4c1-0.5,2,0.1,2.8,0.7c1.1,0.8,2.1,1.9,2.4,3.3
		c0.2,0.9,0.1,1.7,0,2.6c0,1.4-0.8,2.8-2,3.5c-1.1,0.6-3,0.8-4.2,0.3c-1.2-0.4-2.3-1.7-2.8-2.8c-0.7-1.7-0.5-3.5-0.5-5.2
		c0-1.6,0-3.2,0.2-4.8c0.1-1.3,0.5-2.7-0.3-3.9"/>
	<path id="path155" inkscape:connector-curvature="0" class="st7" d="M504.8,362.3c-3,16.1-14,61.3-36.6,76.8
		c-27.1,18.6-67.2,12.1-72.6,13.3c-5.4,1.1-15.7,6.5-21.4,11.3c9.5-14.1,31.6-25.7,44.6-30.8c13-5.1,41.2-14.7,46.3-17
		c5.1-2.3,27.7-14.4,30.5-40.1C498.5,350.2,506.6,353.8,504.8,362.3L504.8,362.3z"/>
	<path id="path157" inkscape:connector-curvature="0" class="st8" d="M398.2,217.5c19.5,20.5,46.6,47.4,71.2,55.5
		c24.6,8.2,8.9,18.6-3.7,11.3C453,277,405.3,234.3,398.2,217.5L398.2,217.5z"/>
	<polygon id="polygon159" class="st8" points="457.8,241 451.6,244.5 405.1,190.3 	"/>
	<path id="path161" inkscape:connector-curvature="0" class="st8" d="M563.9,344.2c5.3-38.6-47.7-95.1-73-103.2
		c-2.7,0.9,15.2,24.7,11.2,35.9c-3.8,2.5-7.3-1.8-9.6-0.5c-2.3,1.3,4.2,4.4,5.3,6.8c1.1,2.4,16.1,22.5,13.8,1.4
		c3.3,9,16,28,12.7,4.7c4.3,17.2,23.8,42,15.3,9.8C550.5,311.9,558.2,348.8,563.9,344.2L563.9,344.2z"/>
	<path id="path163" inkscape:connector-curvature="0" class="st8" d="M439.7,401.3c9.6-5.1,16.7-23.9,18.4-34.7
		c1.7-10.8,8.8-22.4,14.1-21.3c5.4,1.1,13.3,14.8,14.7,22.4c1.4,7.6,6.2-2.8,4.2-8.3s-7.1-26.8-21.2-26.3
		c-14.1,0.6-18.1,35.3-18.4,38.4C451.3,374.8,447.5,392.9,439.7,401.3L439.7,401.3z"/>
	<path id="path165" inkscape:connector-curvature="0" class="st8" d="M393.3,440.3c68.3-20.4,116.4-56.5,116.4-107.7
		c0-26.9-14.1-68.6-44.9-90l-13.6-16.4c0,0,3,6.6,4.4,12.8c0,0-7.2,3.6-8.2,5.6c-0.8,1.8,5.6,5.6,2.4,4.8c-10.1-2.6,15,13,16.9,22.4
		c0.4,2.1-8,13.2-6.9,20s13.4,17.4,19.1,20.8c18.1,10.8,13.7,50-2.8,69.5C454.4,407.8,413.4,430.7,393.3,440.3L393.3,440.3z"/>
	<path id="path167" inkscape:connector-curvature="0" class="st8" d="M475,286.3c-16.7-8.8-29.8-9-35.4-5.9
		c-8.7,4.8,13.2,28,26,34.7c-5.8-7.7-21.7-22.6-20.8-28.3c0.6-3.7,17.8,1.1,28.8,8.2"/>
	<path id="path169" inkscape:connector-curvature="0" class="st8" d="M456,239.2c-4.9-3.1-32.8-14.8-35.3-14.8l3.2,10.2
		c2.3,1,13.1,9.4,15.8,13.1c2.7,3.7,5.5,9.6,16.7,4.5"/>
	<line id="line171" class="st3" x1="430" y1="235.7" x2="423" y2="231.8"/>
	<path id="path173" inkscape:connector-curvature="0" class="st7" d="M439.7,239.3l4.5,5.9l1.9,0.1c1.3-1.2,2.7-3.3,1.7-6.2
		C444.9,238.3,441.9,238.4,439.7,239.3z"/>
	<path id="path175" inkscape:connector-curvature="0" class="st6" d="M446.1,245.3l10.3,0.7c-2.3-3.8-5.4-5.9-8.6-6.9
		C448.8,242.1,447.3,244.2,446.1,245.3L446.1,245.3z"/>
	<path id="path177" inkscape:connector-curvature="0" class="st7" d="M469.2,249.8c-0.1,1.5-0.2,3-0.5,4.4c-0.6,2.5-1.6,6.5,0.4,8.7
		c0.9,1,2.6,1.8,3.9,1.9c1.7,0.2,4.4-0.8,5-2.5c0.4-1,0.3-2.2,0-3.4l-0.1-0.1l0.1,0.1c-0.3-1-0.7-2-1.3-2.7c-1.4-1.8-4-1.5-5,0.7
		c-0.4,0.9-0.4,2,0.3,2.9c0.6,0.8,2.4,2.2,3.4,1.2c0.5-0.5,0.4-1.2,0-1.7s-1.1-0.7-1.7-0.8c0.7,0.1,1.3,0.3,1.7,0.8
		c0.4,0.5,0.5,1.2,0,1.7c-1,0.9-2.8-0.4-3.4-1.2c-0.7-0.8-0.7-1.9-0.3-2.9c0.9-2.1,3.6-2.5,5-0.7c0.6,0.7,1,1.7,1.3,2.7
		c0.2,0.1,0.3,0.3,0.5,0.4c0.7,0.7,0.9,1.7,1,2.6c0.1,1,0.1,2.3-0.2,3.3c-0.3,1.1-0.9,2-1.1,3.1s-0.1,2.3-0.1,3.4
		c0,1.9,1,3.6,2.5,4.7c1.4,1,4,1.6,5.6,0.6c1-0.7,1.6-1.9,2-3c0.2-0.4,0.2-0.9,0.2-1.4c0,0,0-0.1-0.1-0.1c0,0,0,0.1,0.1,0.1
		c-0.1-1.8-1.5-3.6-2.9-4.5c-0.9-0.6-2.4-0.6-3.3,0.1c-0.8,0.7-0.6,2.9-0.3,3.7c0.2,0.5,0.8,1.1,1.3,1.4c0.8,0.4,1.8,0,2-0.9
		c0.2-1-1.2-1.7-2-1.9c0.8,0.2,2.2,0.9,2,1.9c-0.2,0.9-1.2,1.3-2,0.9c-0.5-0.3-1-0.9-1.3-1.4c-0.4-0.8-0.5-3,0.3-3.7
		c0.9-0.7,2.4-0.7,3.3-0.1c1.5,0.9,2.8,2.7,2.9,4.5c0.7,1.2,0.4,2.5,0.2,3.8c-0.2,1.6-0.2,3.2-0.2,4.8c0,1.8-0.2,3.6,0.5,5.2
		c0.5,1.1,1.6,2.4,2.8,2.8c1.2,0.5,3.1,0.3,4.2-0.3c1.2-0.7,2-2.1,2-3.5c0-0.7,0.1-1.5,0-2.2c-0.4-0.9-0.9-1.8-1.3-2.7
		c-0.3-0.4-0.7-0.7-1.1-1c-0.8-0.6-1.9-1.2-2.8-0.7s-1.3,1.5-1.5,2.4c-0.3,1-0.2,2,0.3,2.9c0.7,1.4,2.5,2.5,3.9,1.3
		c0.7-0.6,0.5-1.6,0-2.2c-0.5-0.8-1.2-0.8-2-0.5c0.8-0.3,1.5-0.2,2,0.5s0.6,1.6,0,2.2c-1.4,1.1-3.2,0.1-3.9-1.3
		c-0.5-0.9-0.5-1.9-0.3-2.9c0.2-0.9,0.6-1.9,1.5-2.4c1-0.5,2,0.1,2.8,0.7c0.4,0.3,0.8,0.6,1.1,1c-6.6-13.1-15.6-25.5-27.4-34.9
		C469.3,247.1,469.3,248.5,469.2,249.8L469.2,249.8z"/>
</g>
<polygon id="polygon5" class="st9" points="80.5,399.4 80.5,22.6 420.2,22.6 420.2,399.4 250.3,344.2 "/>
<path id="path10" inkscape:connector-curvature="0" class="st10" d="M405.1,37.7v340.9L255,329.8l-4.7-1.5l-4.7,1.5L95.6,378.6V37.7
	H405.1 M420.2,22.6H80.5v376.8l169.9-55.2l169.9,55.2V22.6z"/>
<polygon id="polygon15" class="st10" points="126.4,57.2 120.6,61.4 122.8,68.2 117.1,64 111.3,68.2 113.5,61.4 107.7,57.2 
	114.8,57.2 117.1,50.4 119.3,57.2 "/>
<polygon id="polygon17" class="st10" points="160.4,57.2 154.7,61.4 156.9,68.2 151.1,64 145.3,68.2 147.5,61.4 141.8,57.2 
	148.9,57.2 151.1,50.4 153.3,57.2 "/>
<polygon id="polygon19" class="st10" points="126.4,87.4 120.6,91.7 122.8,98.5 117.1,94.2 111.3,98.5 113.5,91.7 107.7,87.4 
	114.8,87.4 117.1,80.7 119.3,87.4 "/>
<polygon id="polygon21" class="st10" points="160.4,87.4 154.7,91.7 156.9,98.5 151.1,94.2 145.3,98.5 147.5,91.7 141.8,87.4 
	148.9,87.4 151.1,80.7 153.3,87.4 "/>
<polygon id="polygon23" class="st10" points="126.4,117.7 120.6,121.9 122.8,128.7 117.1,124.5 111.3,128.7 113.5,121.9 
	107.7,117.7 114.8,117.7 117.1,111 119.3,117.7 "/>
<polygon id="polygon25" class="st10" points="160.4,117.7 154.7,121.9 156.9,128.7 151.1,124.5 145.3,128.7 147.5,121.9 
	141.8,117.7 148.9,117.7 151.1,111 153.3,117.7 "/>
<polygon id="polygon29" class="st10" points="194.5,57.2 188.8,61.4 190.9,68.2 185.2,64 179.4,68.2 181.6,61.4 175.8,57.2 
	182.9,57.2 185.2,50.4 187.4,57.2 "/>
<polygon id="polygon31" class="st10" points="228.6,57.2 222.8,61.4 225,68.2 219.2,64 213.4,68.2 215.6,61.4 209.9,57.2 217,57.2 
	219.2,50.4 221.4,57.2 "/>
<polygon id="polygon33" class="st10" points="126.4,252.8 120.6,257 122.8,263.8 117.1,259.6 111.3,263.8 113.5,257 107.7,252.8 
	114.8,252.8 117.1,246 119.3,252.8 "/>
<polygon id="polygon35" class="st10" points="160.4,270.6 154.7,274.8 156.9,281.6 151.1,277.4 145.3,281.6 147.5,274.8 
	141.8,270.6 148.9,270.6 151.1,263.8 153.3,270.6 "/>
<polygon id="polygon37" class="st10" points="126.4,283 120.6,287.3 122.8,294.1 117.1,289.8 111.3,294.1 113.5,287.3 107.7,283 
	114.8,283 117.1,276.3 119.3,283 "/>
<polygon id="polygon39" class="st10" points="160.4,300.9 154.7,305.1 156.9,311.9 151.1,307.6 145.3,311.9 147.5,305.1 
	141.8,300.9 148.9,300.9 151.1,294.1 153.3,300.9 "/>
<polygon id="polygon41" class="st10" points="126.4,313.3 120.6,317.5 122.8,324.4 117.1,320.1 111.3,324.4 113.5,317.5 
	107.7,313.3 114.8,313.3 117.1,306.6 119.3,313.3 "/>
<polygon id="polygon43" class="st10" points="194.5,283 188.8,287.3 190.9,294.1 185.2,289.8 179.4,294.1 181.6,287.3 175.8,283 
	182.9,283 185.2,276.3 187.4,283 "/>
<polygon id="polygon45" class="st10" points="194.5,313.3 188.8,317.5 190.9,324.4 185.2,320.1 179.4,324.4 181.6,317.5 
	175.8,313.3 182.9,313.3 185.2,306.6 187.4,313.3 "/>
<polygon id="polygon47" class="st10" points="160.4,331.2 154.7,335.3 156.9,342.1 151.1,337.9 145.3,342.1 147.5,335.3 
	141.8,331.2 148.9,331.2 151.1,324.4 153.3,331.2 "/>
<polygon id="polygon49" class="st10" points="126.4,343.6 120.6,347.8 122.8,354.6 117.1,350.4 111.3,354.6 113.5,347.8 
	107.7,343.6 114.8,343.6 117.1,336.8 119.3,343.6 "/>
<polygon id="polygon51" class="st10" points="228.6,300.9 222.8,305.1 225,311.9 219.2,307.6 213.4,311.9 215.6,305.1 209.9,300.9 
	217,300.9 219.2,294.1 221.4,300.9 "/>
<polygon id="polygon53" class="st10" points="373.5,57.2 379.3,61.4 377.1,68.2 382.8,64 388.7,68.2 386.5,61.4 392.2,57.2 
	385.1,57.2 382.8,50.4 380.6,57.2 "/>
<polygon id="polygon55" class="st10" points="339.5,57.2 345.2,61.4 343,68.2 348.8,64 354.6,68.2 352.4,61.4 358.2,57.2 
	351.1,57.2 348.8,50.4 346.6,57.2 "/>
<polygon id="polygon57" class="st10" points="373.5,87.4 379.3,91.7 377.1,98.5 382.8,94.2 388.7,98.5 386.5,91.7 392.2,87.4 
	385.1,87.4 382.8,80.7 380.6,87.4 "/>
<polygon id="polygon59" class="st10" points="339.5,87.4 345.2,91.7 343,98.5 348.8,94.2 354.6,98.5 352.4,91.7 358.2,87.4 
	351.1,87.4 348.8,80.7 346.6,87.4 "/>
<polygon id="polygon61" class="st10" points="373.5,117.7 379.3,121.9 377.1,128.7 382.8,124.5 388.7,128.7 386.5,121.9 
	392.2,117.7 385.1,117.7 382.8,111 380.6,117.7 "/>
<polygon id="polygon63" class="st10" points="339.5,117.7 345.2,121.9 343,128.7 348.8,124.5 354.6,128.7 352.4,121.9 358.2,117.7 
	351.1,117.7 348.8,111 346.6,117.7 "/>
<polygon id="polygon65" class="st10" points="373.5,148 379.3,152.2 377.1,159 382.8,154.8 388.7,159 386.5,152.2 392.2,148 
	385.1,148 382.8,141.2 380.6,148 "/>
<polygon id="polygon67" class="st10" points="305.4,57.2 311.2,61.4 309,68.2 314.7,64 320.6,68.2 318.4,61.4 324.1,57.2 317,57.2 
	314.7,50.4 312.5,57.2 "/>
<polygon id="polygon69" class="st10" points="271.4,57.2 277.1,61.4 274.9,68.2 280.7,64 286.5,68.2 284.3,61.4 290.1,57.2 
	283,57.2 280.7,50.4 278.5,57.2 "/>
<polygon id="polygon71" class="st10" points="373.5,252.8 379.3,257 377.1,263.8 382.8,259.6 388.7,263.8 386.5,257 392.2,252.8 
	385.1,252.8 382.8,246 380.6,252.8 "/>
<polygon id="polygon73" class="st10" points="339.5,270.6 345.2,274.8 343,281.6 348.8,277.4 354.6,281.6 352.4,274.8 358.2,270.6 
	351.1,270.6 348.8,263.8 346.6,270.6 "/>
<polygon id="polygon75" class="st10" points="373.5,283 379.3,287.3 377.1,294.1 382.8,289.8 388.7,294.1 386.5,287.3 392.2,283 
	385.1,283 382.8,276.3 380.6,283 "/>
<polygon id="polygon77" class="st10" points="339.5,300.9 345.2,305.1 343,311.9 348.8,307.6 354.6,311.9 352.4,305.1 358.2,300.9 
	351.1,300.9 348.8,294.1 346.6,300.9 "/>
<polygon id="polygon79" class="st10" points="373.5,313.3 379.3,317.5 377.1,324.4 382.8,320.1 388.7,324.4 386.5,317.5 
	392.2,313.3 385.1,313.3 382.8,306.6 380.6,313.3 "/>
<polygon id="polygon81" class="st10" points="305.4,283 311.2,287.3 309,294.1 314.7,289.8 320.6,294.1 318.4,287.3 324.1,283 
	317,283 314.7,276.3 312.5,283 "/>
<polygon id="polygon83" class="st10" points="305.4,313.3 311.2,317.5 309,324.4 314.7,320.1 320.6,324.4 318.4,317.5 324.1,313.3 
	317,313.3 314.7,306.6 312.5,313.3 "/>
<polygon id="polygon85" class="st10" points="339.5,331.2 345.2,335.3 343,342.1 348.8,337.9 354.6,342.1 352.4,335.3 358.2,331.2 
	351.1,331.2 348.8,324.4 346.6,331.2 "/>
<polygon id="polygon87" class="st10" points="373.5,343.6 379.3,347.8 377.1,354.6 382.8,350.4 388.7,354.6 386.5,347.8 
	392.2,343.6 385.1,343.6 382.8,336.8 380.6,343.6 "/>
<polygon id="polygon89" class="st10" points="271.4,300.9 277.1,305.1 274.9,311.9 280.7,307.6 286.5,311.9 284.3,305.1 
	290.1,300.9 283,300.9 280.7,294.1 278.5,300.9 "/>
<polygon id="polygon91" class="st10" points="241,300.9 246.8,305.1 244.6,311.9 250.3,307.6 256.1,311.9 253.9,305.1 259.7,300.9 
	252.5,300.9 250.3,294.1 248.2,300.9 "/>
<g id="Layer_5" transform="translate(-99,-105)">
	<path id="path94" inkscape:connector-curvature="0" class="st11" d="M349.3,305.8c-5.5,0-10.6,1.7-14.8,4.5
		c1.7-0.5,3.6-0.7,5.5-0.7c12.5,0,22.6,10.1,22.6,22.6s-10.1,22.6-22.6,22.6c-1.9,0-3.8-0.2-5.5-0.7c4.2,2.9,9.4,4.5,14.8,4.5
		c14.6,0,26.5-11.9,26.5-26.5S363.9,305.8,349.3,305.8z"/>
	<path id="path96" inkscape:connector-curvature="0" class="st12" d="M362.6,332.3c0-12.5-10.1-22.6-22.6-22.6
		c-1.9,0-3.8,0.2-5.5,0.7c-7,4.8-11.7,12.8-11.7,21.9s4.6,17.2,11.7,21.9c1.7,0.5,3.6,0.7,5.5,0.7
		C352.4,354.9,362.6,344.8,362.6,332.3z"/>
</g>
<g id="Layer_6" transform="translate(-99,-105)">
	<path id="path99" inkscape:connector-curvature="0" class="st13" d="M331.2,220.7c3-4.2,9.9-7.2,14.7,0.9c2.3,3.9-1,6.2-0.5,8.8
		c0.4,2.3,1.3,4.2,4,6c2.7,1.8-9.2,5.6-10.6,4.6c-0.8-0.5-3.9-1.1-5.4-5.7c-1.9-6,7.1-7.9,5.8-12.6
		C338.5,220.3,336.6,218.2,331.2,220.7L331.2,220.7z"/>
	<path id="path101" inkscape:connector-curvature="0" class="st13" d="M359.8,217.6c5-0.8,12.1,1.9,9.8,11c-1.1,4.3-5.1,3.7-6.6,5.8
		c-1.4,1.9-2,3.9-1.4,7c0.7,3.2-10.4-2.6-10.7-4.2c-0.2-1-2-3.5,0.2-7.8c3-5.5,10.6-0.5,13-4.9C365.2,222.3,365.3,219.5,359.8,217.6
		L359.8,217.6z"/>
	<path id="path103" inkscape:connector-curvature="0" class="st13" d="M382.2,235.4c4.2,3,7.2,9.9-0.9,14.7c-3.9,2.3-6.2-1-8.8-0.5
		c-2.3,0.4-4.2,1.3-6,4c-1.8,2.7-5.6-9.2-4.6-10.6c0.5-0.8,1.1-3.9,5.7-5.4c6-1.9,7.9,7.1,12.6,5.8
		C382.6,242.8,384.8,240.8,382.2,235.4L382.2,235.4z"/>
	<path id="path105" inkscape:connector-curvature="0" class="st13" d="M385.4,264c0.8,5-1.9,12.1-11,9.8c-4.3-1.1-3.7-5.1-5.8-6.6
		c-1.9-1.4-3.9-2-7-1.4c-3.2,0.7,2.6-10.4,4.2-10.7c1-0.2,3.5-2,7.8,0.2c5.5,3,0.5,10.6,4.9,13C380.6,269.5,383.4,269.5,385.4,264
		L385.4,264z"/>
	<path id="path107" inkscape:connector-curvature="0" class="st13" d="M367.5,286.4c-3,4.2-9.9,7.2-14.7-0.9c-2.3-3.9,1-6.2,0.5-8.8
		c-0.4-2.3-1.3-4.2-4-6c-2.7-1.8,9.2-5.6,10.6-4.6c0.8,0.5,3.9,1.1,5.4,5.7c1.9,6-7.1,7.9-5.8,12.6
		C360.2,286.9,362.1,289,367.5,286.4L367.5,286.4z"/>
	<path id="path109" inkscape:connector-curvature="0" class="st13" d="M338.9,289.6c-5,0.8-12.1-1.9-9.8-11c1.1-4.3,5.1-3.7,6.6-5.8
		c1.4-1.9,2-3.9,1.4-7c-0.7-3.2,10.4,2.6,10.7,4.2c0.2,1,2,3.5-0.2,7.8c-3,5.5-10.6,0.5-13,4.9C333.5,284.8,333.4,287.6,338.9,289.6
		L338.9,289.6z"/>
	<path id="path111" inkscape:connector-curvature="0" class="st13" d="M316.5,271.7c-4.2-3-7.2-9.9,0.9-14.7c3.9-2.3,6.2,1,8.8,0.5
		c2.3-0.4,4.2-1.3,6-4s5.6,9.2,4.6,10.6c-0.5,0.8-1.1,3.9-5.7,5.4c-6,1.9-7.9-7.1-12.6-5.8C316.1,264.4,313.9,266.4,316.5,271.7
		L316.5,271.7z"/>
	<path id="path113" inkscape:connector-curvature="0" class="st13" d="M313.3,243.1c-0.8-5,1.9-12.1,11-9.8c4.3,1.1,3.7,5.1,5.8,6.6
		c1.9,1.4,3.9,2,7,1.4c3.2-0.7-2.6,10.4-4.2,10.7c-1,0.2-3.5,2-7.8-0.2c-5.5-3-0.5-10.6-4.9-13C318.1,237.7,315.3,237.6,313.3,243.1
		L313.3,243.1z"/>
	<circle id="circle115" class="st14" cx="349.3" cy="253.6" r="18.5"/>
</g>
<g id="Ponies" transform="translate(-99,-105)">
	<path id="path180" inkscape:connector-curvature="0" class="st15" d="M261.6,321.9c-0.5-0.1-0.9-0.2-1.2-0.5
		c-0.3-0.4-0.4-0.8,0-1.2c0.7-0.7,1.9,0.3,2.3,0.8c0.5,0.5,0.5,1.4,0.2,2c-0.7,1.5-2.4,1.7-3.5,0.5c-0.8-1.1-1.3-2.9-0.8-4.2
		c0.5-1.2,2.3-1.9,3.4-1.7c0.9,0.1,2.1,0.7,2.7,1.4c1.4,1.5,0.7,4.3,0.3,6.1c-0.2,1-0.3,2-0.4,3.1c-0.1,1-0.1,2,0.1,3"/>
	<path id="path182" inkscape:connector-curvature="0" class="st15" d="M255.1,313.5c-0.5-0.2-1.5-0.6-1.4-1.3
		c0.1-0.6,0.8-0.9,1.4-0.6c0.3,0.2,0.7,0.6,0.8,1c0.2,0.6,0.4,2.1-0.2,2.6c-0.6,0.5-1.7,0.5-2.3,0.1c-1.3-0.8-2.4-2.5-1.9-4.1
		c0.3-0.8,0.7-1.6,1.4-2c1.1-0.7,2.9-0.3,3.9,0.4c1.1,0.8,1.7,1.9,1.7,3.3c0,0.8,0,1.6-0.1,2.3c-0.2,0.8-0.5,1.4-0.8,2.1
		c-0.2,0.7-0.2,1.5-0.1,2.3c0.1,0.6,0.2,1.4,0.7,1.8c0.2,0.2,0.2,0.2,0.4,0.4"/>
	<path id="path184" inkscape:connector-curvature="0" class="st15" d="M248.1,305c-0.5,0.2-1.1,0.2-1.4-0.4c-0.3-0.5-0.5-1.1,0-1.5
		c1-0.8,2.2-0.1,2.6,0.9c0.3,0.6,0.4,1.4,0.2,2c-0.2,0.6-0.4,1.4-1.1,1.7c-0.7,0.4-1.4-0.1-2-0.5c-0.8-0.5-1.4-1.4-1.7-2.3
		c-0.2-0.6-0.1-1.2,0-1.8c0-0.9,0.6-2,1.4-2.4c0.8-0.5,2-0.5,2.9-0.2c0.8,0.3,1.6,1.1,1.9,2c0.5,1.1,0.3,2.4,0.3,3.6
		c0,1.1,0,2.2-0.2,3.3c-0.1,0.9-0.3,1.9,0.2,2.7"/>
	<path id="path186" inkscape:connector-curvature="0" class="st16" d="M240.1,250.1c2-11.1,9.7-42.4,25.3-53.1
		c18.8-12.9,46.5-8.4,50.2-9.2c3.7-0.8,10.8-4.5,14.8-7.8c-6.6,9.8-21.8,17.8-30.8,21.3c-9,3.5-28.5,10.1-32,11.7
		s-19.1,10-21.1,27.7C244.5,258.5,238.8,256,240.1,250.1L240.1,250.1z"/>
	<path id="path188" inkscape:connector-curvature="0" class="st17" d="M313.8,350.2c-13.5-14.2-32.2-32.8-49.2-38.4
		c-17-5.7-6.1-12.9,2.6-7.8C275.9,309.1,308.9,338.6,313.8,350.2z"/>
	<polygon id="polygon190" class="st17" points="272.6,334 276.9,331.5 309.1,369 	"/>
	<path id="path192" inkscape:connector-curvature="0" class="st17" d="M199.3,262.6c-3.7,26.7,32.9,65.8,50.5,71.3
		c1.8-0.6-10.5-17-7.7-24.7c2.6-1.7,5.1,1.3,6.6,0.4c1.6-0.9-2.9-3-3.6-4.7s-11.1-15.6-9.5-0.9c-2.3-6.2-11.1-19.4-8.8-3.3
		c-3-11.9-16.5-29.1-10.6-6.8C208.5,285,203.2,259.4,199.3,262.6L199.3,262.6z"/>
	<path id="path194" inkscape:connector-curvature="0" class="st17" d="M285.2,223.2c-6.7,3.5-11.6,16.5-12.7,24
		c-1.1,7.5-6.1,15.5-9.8,14.7c-3.7-0.8-9.2-10.2-10.1-15.5c-1-5.2-4.3,2-3,5.7c1.4,3.8,4.9,18.5,14.7,18.2s12.5-24.4,12.7-26.6
		C277.1,241.5,279.7,229,285.2,223.2L285.2,223.2z"/>
	<path id="path196" inkscape:connector-curvature="0" class="st17" d="M317.2,196.2c-47.2,14.2-80.5,39-80.4,74.5
		c0,18.5,9.8,47.4,31,62.3l9.4,11.4c0,0-2.1-4.5-3-8.9c0,0,5-2.4,5.6-3.9c0.6-1.2-3.9-3.9-1.7-3.3c7,1.8-10.4-9-11.7-15.5
		c-0.3-1.4,5.5-9.1,4.8-13.8c-0.8-4.7-9.3-12-13.2-14.4c-12.5-7.5-9.5-34.6,2-48.1C274.9,218.7,303.3,202.8,317.2,196.2L317.2,196.2
		z"/>
	<path id="path198" inkscape:connector-curvature="0" class="st17" d="M260.7,302.6c11.5,6.1,20.6,6.2,24.4,4.1
		c6.1-3.3-9.1-19.3-17.9-24c4,5.4,15,15.6,14.4,19.5c-0.4,2.6-12.3-0.8-19.9-5.7"/>
	<path id="path200" inkscape:connector-curvature="0" class="st17" d="M273.9,335.3c3.4,2.1,22.6,10.2,24.4,10.2l-2.2-7
		c-1.6-0.7-9.1-6.5-10.9-9.1c-1.9-2.6-3.8-6.7-11.5-3.1"/>
	<line id="line202" class="st15" x1="291.6" y1="337.2" x2="296.4" y2="339.9"/>
	<path id="path204" inkscape:connector-curvature="0" class="st16" d="M285.2,335.2l-3.1-4.1l-1.3-0.1c-0.9,0.8-1.9,2.3-1.1,4.2
		C281.5,335.8,283.6,335.7,285.2,335.2z"/>
	<path id="path206" inkscape:connector-curvature="0" class="st18" d="M280.7,330.9l-7.1-0.5c1.6,2.6,3.7,4.1,6,4.8
		C278.8,333.2,279.9,331.8,280.7,330.9L280.7,330.9z"/>
	<path id="path208" inkscape:connector-curvature="0" class="st16" d="M264.7,327.8c0.1-1.1,0.2-2,0.4-3.1c0.4-1.7,1.1-4.5-0.3-6.1
		c-0.6-0.7-1.8-1.2-2.7-1.4c-1.2-0.2-3,0.5-3.4,1.7c-0.2,0.7-0.2,1.5,0,2.3l0.1,0.1l-0.1-0.1c0.2,0.7,0.5,1.4,0.9,1.9
		c1,1.3,2.8,1.1,3.5-0.5c0.3-0.7,0.2-1.4-0.2-2c-0.5-0.5-1.7-1.5-2.3-0.8c-0.4,0.3-0.2,0.8,0,1.2c0.3,0.4,0.8,0.5,1.2,0.5
		c-0.5-0.1-0.9-0.2-1.2-0.5c-0.3-0.4-0.4-0.8,0-1.2c0.7-0.7,1.9,0.3,2.3,0.8c0.5,0.5,0.5,1.4,0.2,2c-0.7,1.5-2.4,1.7-3.5,0.5
		c-0.4-0.5-0.7-1.1-0.9-1.9c-0.2-0.1-0.2-0.2-0.3-0.3c-0.5-0.5-0.6-1.2-0.7-1.8c-0.1-0.7-0.1-1.6,0.1-2.3c0.2-0.8,0.7-1.4,0.8-2.1
		c0.2-0.8,0.1-1.6,0.1-2.3c0-1.4-0.7-2.5-1.7-3.3c-1-0.7-2.8-1.1-3.9-0.4c-0.7,0.5-1.1,1.3-1.4,2c-0.1,0.3-0.2,0.6-0.2,0.9
		c0,0,0,0.1,0.1,0.1c0,0,0-0.1-0.1-0.1c0.1,1.3,1,2.5,2,3.1c0.6,0.4,1.7,0.5,2.3-0.1c0.5-0.5,0.5-2,0.2-2.6c-0.2-0.4-0.5-0.8-0.8-1
		c-0.5-0.3-1.3,0-1.4,0.6c-0.2,0.7,0.8,1.2,1.4,1.3c-0.5-0.2-1.5-0.6-1.4-1.3c0.1-0.6,0.8-0.9,1.4-0.6c0.3,0.2,0.7,0.6,0.8,1
		c0.2,0.6,0.4,2.1-0.2,2.6c-0.6,0.5-1.7,0.5-2.3,0.1c-1-0.6-2-1.9-2-3.1c-0.5-0.8-0.2-1.7-0.2-2.6c0.1-1.1,0.2-2.2,0.2-3.3
		c0-1.2,0.2-2.5-0.3-3.6c-0.3-0.8-1.1-1.7-1.9-2c-0.8-0.3-2.1-0.2-2.9,0.2c-0.8,0.5-1.4,1.4-1.4,2.4c0,0.5-0.1,1,0,1.5
		c0.3,0.6,0.6,1.3,0.9,1.9c0.2,0.2,0.5,0.5,0.8,0.7c0.5,0.4,1.3,0.8,2,0.5c0.6-0.3,0.8-1.1,1.1-1.7c0.2-0.7,0.2-1.4-0.2-2
		c-0.5-0.9-1.7-1.7-2.6-0.9c-0.5,0.4-0.4,1.1,0,1.5c0.4,0.5,0.8,0.5,1.4,0.4c-0.5,0.2-1.1,0.2-1.4-0.4c-0.3-0.5-0.5-1.1,0-1.5
		c1-0.8,2.2-0.1,2.6,0.9c0.3,0.6,0.4,1.4,0.2,2c-0.2,0.6-0.4,1.4-1.1,1.7c-0.7,0.4-1.4-0.1-2-0.5c-0.3-0.2-0.5-0.5-0.8-0.7
		c4.5,9.1,10.8,17.6,18.9,24.1C264.6,329.7,264.6,328.8,264.7,327.8L264.7,327.8z"/>
	<path id="path210" inkscape:connector-curvature="0" class="st15" d="M419.3,227.1c0.5,0.1,0.9,0.2,1.2,0.5c0.3,0.4,0.4,0.8,0,1.2
		c-0.7,0.7-1.9-0.3-2.3-0.8s-0.5-1.4-0.2-2c0.7-1.5,2.4-1.7,3.5-0.5c0.8,1.1,1.3,3,0.8,4.2c-0.5,1.2-2.3,1.9-3.4,1.7
		c-0.9-0.1-2.1-0.7-2.7-1.4c-1.4-1.5-0.7-4.3-0.3-6.1c0.2-1,0.3-2,0.4-3.1c0.1-1,0.1-2-0.1-3"/>
	<path id="path212" inkscape:connector-curvature="0" class="st15" d="M425.8,235.5c0.5,0.2,1.5,0.6,1.4,1.3
		c-0.1,0.6-0.8,0.9-1.4,0.6c-0.3-0.2-0.7-0.6-0.8-1c-0.2-0.6-0.4-2.1,0.2-2.6c0.6-0.5,1.7-0.5,2.3-0.1c1.3,0.8,2.4,2.5,1.9,4.1
		c-0.3,0.8-0.7,1.6-1.4,2c-1.1,0.7-2.9,0.3-3.9-0.4c-1.1-0.8-1.7-1.9-1.7-3.3c0-0.8,0-1.6,0.1-2.3c0.2-0.8,0.6-1.4,0.8-2.1
		c0.2-0.7,0.2-1.5,0.1-2.3c-0.1-0.6-0.2-1.4-0.7-1.8c-0.2-0.2-0.2-0.2-0.4-0.4"/>
	<path id="path214" inkscape:connector-curvature="0" class="st15" d="M432.9,244c0.5-0.2,1.1-0.2,1.4,0.4c0.3,0.5,0.5,1.1,0,1.5
		c-1,0.8-2.2,0.1-2.6-0.9c-0.3-0.6-0.4-1.4-0.2-2c0.2-0.6,0.4-1.4,1.1-1.7c0.7-0.4,1.4,0.1,2,0.5c0.8,0.5,1.4,1.4,1.7,2.3
		c0.2,0.6,0.1,1.2,0,1.8c0,0.9-0.6,2-1.4,2.4c-0.8,0.5-2,0.5-2.9,0.2c-0.8-0.3-1.6-1.1-1.9-2c-0.5-1.1-0.3-2.4-0.3-3.6
		c0-1.1,0-2.2,0.2-3.3c0.1-0.9,0.3-1.9-0.2-2.7"/>
	<path id="path216" inkscape:connector-curvature="0" class="st19" d="M440.9,298.9c-2,11.1-9.7,42.4-25.3,53.1
		c-18.8,12.9-46.5,8.4-50.2,9.2c-3.7,0.8-10.8,4.5-14.8,7.8c6.6-9.8,21.8-17.8,30.8-21.3s28.5-10.1,32-11.7
		c3.5-1.6,19.1-10,21.1-27.7C436.4,290.5,442.1,293,440.9,298.9L440.9,298.9z"/>
	<path id="path218" inkscape:connector-curvature="0" class="st20" d="M367.1,198.8c13.5,14.2,32.2,32.8,49.2,38.4
		c17,5.7,6.1,12.9-2.6,7.8C405,239.9,372,210.4,367.1,198.8z"/>
	<polygon id="polygon220" class="st20" points="408.3,215.1 404,217.5 371.9,180 	"/>
	<path id="path222" inkscape:connector-curvature="0" class="st20" d="M481.7,286.4c3.7-26.7-32.9-65.8-50.5-71.3
		c-1.8,0.6,10.5,17,7.7,24.7c-2.6,1.7-5.1-1.3-6.6-0.4c-1.6,0.9,2.9,3,3.6,4.7c0.8,1.7,11.1,15.6,9.5,0.9c2.3,6.2,11.1,19.4,8.8,3.3
		c3,11.9,16.5,29.1,10.6,6.8C472.4,264,477.7,289.5,481.7,286.4z"/>
	<path id="path224" inkscape:connector-curvature="0" class="st20" d="M395.8,325.9c6.7-3.5,11.6-16.5,12.7-24
		c1.1-7.5,6.1-15.5,9.8-14.7c3.7,0.8,9.2,10.2,10.1,15.5c1,5.2,4.3-2,3-5.7c-1.4-3.8-4.9-18.5-14.7-18.2
		c-9.8,0.4-12.5,24.4-12.7,26.6C403.8,307.5,401.2,320,395.8,325.9z"/>
	<path id="path226" inkscape:connector-curvature="0" class="st20" d="M363.8,352.8c47.2-14.2,80.5-39,80.4-74.5
		c0-18.5-9.8-47.4-31-62.3l-9.4-11.4c0,0,2.1,4.5,3,8.9c0,0-5,2.4-5.6,3.9c-0.6,1.2,3.9,3.9,1.7,3.3c-7-1.8,10.4,9,11.7,15.5
		c0.3,1.4-5.5,9.1-4.8,13.8s9.3,12,13.2,14.4c12.5,7.5,9.5,34.6-2,48.1C406,330.3,377.6,346.1,363.8,352.8L363.8,352.8z"/>
	<path id="path228" inkscape:connector-curvature="0" class="st20" d="M420.2,246.4c-11.5-6.1-20.6-6.2-24.4-4.1
		c-6.1,3.3,9.1,19.3,17.9,24c-4-5.4-15-15.6-14.4-19.5c0.4-2.6,12.3,0.8,19.9,5.7"/>
	<path id="path230" inkscape:connector-curvature="0" class="st20" d="M407.1,213.8c-3.4-2.1-22.6-10.2-24.4-10.2l2.2,7
		c1.6,0.7,9.1,6.5,10.9,9.1c1.9,2.6,3.8,6.7,11.5,3.1"/>
	<line id="line232" class="st15" x1="389.1" y1="211.4" x2="384.3" y2="208.7"/>
	<path id="path234" inkscape:connector-curvature="0" class="st19" d="M395.8,213.9l3.1,4.1l1.3,0.1c0.9-0.8,1.9-2.3,1.1-4.2
		C399.4,213.2,397.4,213.3,395.8,213.9L395.8,213.9z"/>
	<path id="path236" inkscape:connector-curvature="0" class="st18" d="M400.2,218l7.1,0.5c-1.6-2.6-3.7-4.1-6-4.8
		C402.1,215.8,401.1,217.2,400.2,218z"/>
	<path id="path238" inkscape:connector-curvature="0" class="st19" d="M416.2,221.1c-0.1,1.1-0.2,2-0.4,3.1
		c-0.4,1.7-1.1,4.5,0.3,6.1c0.6,0.7,1.8,1.2,2.7,1.4c1.2,0.2,3-0.5,3.4-1.7c0.2-0.7,0.2-1.5,0-2.3l-0.1-0.1l0.1,0.1
		c-0.2-0.7-0.5-1.4-0.9-1.9c-1-1.3-2.8-1.1-3.5,0.5c-0.3,0.7-0.2,1.4,0.2,2c0.5,0.5,1.7,1.5,2.3,0.8c0.4-0.3,0.2-0.8,0-1.2
		c-0.3-0.4-0.8-0.5-1.2-0.5c0.5,0.1,0.9,0.2,1.2,0.5c0.3,0.4,0.4,0.8,0,1.2c-0.7,0.7-1.9-0.3-2.3-0.8c-0.5-0.5-0.5-1.4-0.2-2
		c0.7-1.5,2.4-1.7,3.5-0.5c0.4,0.5,0.7,1.1,0.9,1.9c0.2,0.1,0.2,0.2,0.3,0.3c0.5,0.5,0.6,1.2,0.7,1.8c0.1,0.7,0.1,1.6-0.1,2.3
		c-0.2,0.8-0.7,1.4-0.8,2.1c-0.2,0.8-0.1,1.6-0.1,2.3c0,1.4,0.7,2.5,1.7,3.3c1,0.7,2.8,1.1,3.9,0.4c0.7-0.5,1.1-1.3,1.4-2
		c0.1-0.3,0.2-0.6,0.2-0.9c0,0,0-0.1-0.1-0.1c0,0,0,0.1,0.1,0.1c-0.1-1.3-1-2.5-2-3.1c-0.6-0.4-1.7-0.5-2.3,0.1
		c-0.5,0.5-0.5,2-0.2,2.6c0.2,0.4,0.5,0.8,0.8,1c0.5,0.3,1.3,0,1.4-0.6c0.2-0.7-0.8-1.2-1.4-1.3c0.5,0.2,1.5,0.6,1.4,1.3
		c-0.1,0.6-0.8,0.9-1.4,0.6c-0.3-0.2-0.7-0.6-0.8-1c-0.2-0.6-0.4-2.1,0.2-2.6c0.6-0.5,1.7-0.5,2.3-0.1c1,0.6,2,1.9,2,3.1
		c0.5,0.8,0.2,1.7,0.2,2.6c-0.1,1.1-0.2,2.2-0.2,3.3c0,1.2-0.2,2.5,0.3,3.6c0.3,0.8,1.1,1.7,1.9,2c0.8,0.3,2.1,0.2,2.9-0.2
		c0.8-0.5,1.4-1.4,1.4-2.4c0-0.5,0.1-1,0-1.5c-0.3-0.6-0.6-1.3-0.9-1.9c-0.2-0.2-0.5-0.5-0.8-0.7c-0.5-0.4-1.3-0.8-2-0.5
		c-0.6,0.3-0.8,1.1-1.1,1.7c-0.2,0.7-0.2,1.4,0.2,2c0.5,0.9,1.7,1.7,2.6,0.9c0.5-0.4,0.4-1.1,0-1.5c-0.4-0.5-0.8-0.5-1.4-0.4
		c0.5-0.2,1.1-0.2,1.4,0.4c0.3,0.5,0.5,1.1,0,1.5c-1,0.8-2.2,0.1-2.6-0.9c-0.3-0.6-0.4-1.4-0.2-2c0.2-0.6,0.4-1.4,1.1-1.7
		c0.7-0.4,1.4,0.1,2,0.5c0.3,0.2,0.5,0.5,0.8,0.7c-4.5-9.1-10.8-17.6-18.9-24.1C416.3,219.2,416.3,220.2,416.2,221.1L416.2,221.1z"
		/>
</g>
<path id="path256" inkscape:connector-curvature="0" class="st10" d="M405.1,37.7v340.9L255,329.8l-4.7-1.5l-4.7,1.5L95.6,378.6
	V37.7H405.1 M420.2,22.6H80.5v376.8l169.9-55.2l169.9,55.2V22.6z"/>
<polygon id="polygon648" class="st10" points="309,98.5 314.7,94.2 320.6,98.5 318.4,91.7 324.1,87.4 317,87.4 314.7,80.7 
	312.5,87.4 305.4,87.4 311.2,91.7 "/>
<polygon id="polygon650" class="st10" points="375.2,222.6 368.1,222.6 365.8,215.8 363.6,222.6 356.5,222.6 362.3,226.7 
	360.1,233.5 365.8,229.3 371.6,233.5 369.4,226.7 "/>
<polygon id="polygon652" class="st10" points="119.8,159 122,152.2 116.2,148 123.3,148 125.6,141.2 127.8,148 134.9,148 
	129.2,152.2 131.4,159 125.6,154.8 "/>
<linearGradient id="SVGID_1_" gradientUnits="userSpaceOnUse" x1="243.6861" y1="473.217" x2="243.6861" y2="382.1048">
	<stop  offset="0" style="stop-color:#965FA6"/>
	<stop  offset="1" style="stop-color:#4C3054"/>
</linearGradient>
<path class="st21" d="M122.6,473.2c-3.5,0-6.3-1-8.4-3.1c-2.1-2.1-3.1-4.8-3.1-8.4c0-3.5,1-6.3,3.1-8.4c2.1-2.1,4.9-3.1,8.4-3.1
	c3.5,0,6.3,1,8.4,3.1c2.1,2.1,3.1,4.9,3.1,8.4c0,3.5-1,6.3-3.1,8.4C128.9,472.2,126.1,473.2,122.6,473.2z M190.7,473.2
	c-6.7,0-12.2-2.3-16.3-7c-4.1-4.7-6.2-11-6.2-18.8V429c0-8,2.1-14.3,6.2-19c4.1-4.7,9.6-7,16.4-7c5.6,0,10,1.6,13.3,4.7
	c3.3,3.2,4.9,7.5,4.9,13l-3.4-3.6h3.6l-0.5-16.1v-19h15.4V472h-15v-12.9h-3.4l3.4-3.6c0,5.5-1.6,9.8-4.9,13
	C200.7,471.6,196.3,473.2,190.7,473.2z M196.1,459.9c3.9,0,7-1.2,9.2-3.5c2.2-2.3,3.3-5.6,3.3-9.8v-17c0-4.2-1.1-7.4-3.3-9.8
	c-2.2-2.3-5.2-3.5-9.2-3.5s-7,1.1-9.2,3.4c-2.2,2.3-3.3,5.6-3.3,9.8v17c0,4.3,1.1,7.6,3.3,9.8C189.1,458.8,192.2,459.9,196.1,459.9z
	 M270.5,473.2c-5.7,0-10.8-1.1-15-3.3c-4.3-2.2-7.6-5.3-9.9-9.3c-2.3-4-3.5-8.6-3.5-14v-17c0-5.3,1.2-10,3.5-14
	c2.3-4,5.6-7.1,9.9-9.3c4.3-2.2,9.3-3.3,15-3.3c5.7,0,10.6,1.1,14.8,3.3c4.2,2.2,7.5,5.3,9.8,9.3c2.3,4,3.5,8.6,3.5,14v12.2h-41.7
	v4.8c0,4.8,1.1,8.4,3.4,10.8c2.3,2.4,5.7,3.6,10.2,3.6c3.4,0,6.2-0.6,8.4-1.8c2.1-1.2,3.5-2.9,4.1-5.2h15.1
	c-1.1,5.8-4.2,10.5-9.3,14C283.8,471.5,277.7,473.2,270.5,473.2z M283.8,433.2v-3.7c0-4.7-1.1-8.3-3.3-10.8c-2.2-2.5-5.5-3.8-10-3.8
	c-4.4,0-7.8,1.3-10.1,3.8c-2.3,2.5-3.4,6.2-3.4,10.8v2.6l27.9-0.2L283.8,433.2z M334.4,472l-22.3-67.7h15.8l12.9,41.1
	c0.7,2.5,1.5,5,2.2,7.6c0.7,2.6,1.2,4.7,1.5,6.3c0.4-1.6,0.9-3.7,1.6-6.3c0.7-2.6,1.3-5.1,2-7.5l12.7-41.2h15.6L354.2,472H334.4z"/>
</svg>
