<?xml version="1.0" encoding="utf-8"?>
<!-- Generator: Adobe Illustrator 26.2.1, SVG Export Plug-In . SVG Version: 6.00 Build 0)  -->
<svg version="1.1"
	 id="svg241" xmlns:cc="http://creativecommons.org/ns#" xmlns:dc="http://purl.org/dc/elements/1.1/" xmlns:inkscape="http://www.inkscape.org/namespaces/inkscape" xmlns:rdf="http://www.w3.org/1999/02/22-rdf-syntax-ns#" xmlns:sodipodi="http://sodipodi.sourceforge.net/DTD/sodipodi-0.dtd" xmlns:svg="http://www.w3.org/2000/svg"
	 xmlns="http://www.w3.org/2000/svg" xmlns:xlink="http://www.w3.org/1999/xlink" x="0px" y="0px" viewBox="0 0 2415.7 500"
	 style="enable-background:new 0 0 2415.7 500;" xml:space="preserve">
<style type="text/css">
	.st0{display:none;}
	.st1{display:inline;fill:none;stroke:#000000;stroke-width:0.75;stroke-miterlimit:10;}
	.st2{display:inline;fill:#8433E5;stroke:#000000;stroke-width:0.75;stroke-miterlimit:10;}
	.st3{display:inline;fill:#2D7FDC;stroke:#000000;stroke-width:0.75;stroke-miterlimit:10;}
	.st4{display:inline;fill:#FFFAFF;stroke:#000000;stroke-width:0.75;stroke-miterlimit:10;}
	.st5{display:inline;fill:#68C0B1;stroke:#000000;stroke-width:0.75;stroke-miterlimit:10;}
	.st6{display:inline;fill:#F4FAFB;stroke:#000000;stroke-width:0.75;stroke-miterlimit:10;}
	.st7{fill:#88D5F4;}
	.st8{fill:#FFFFFF;}
	.st9{fill:#FDFDFD;}
	.st10{fill:#B27AEF;}
	.st11{fill:#FFB92D;}
	.st12{fill:#F9FA8F;}
	.st13{fill:none;stroke:#000000;stroke-width:0.6851;stroke-miterlimit:10;}
	.st14{fill:#8433E5;stroke:#000000;stroke-width:0.6851;stroke-miterlimit:10;}
	.st15{fill:#2D7FDC;stroke:#000000;stroke-width:0.6851;stroke-miterlimit:10;}
	.st16{fill:#FFFAFF;stroke:#000000;stroke-width:0.6851;stroke-miterlimit:10;}
	.st17{fill:#68C0B1;stroke:#000000;stroke-width:0.6851;stroke-miterlimit:10;}
	.st18{fill:#F4FAFB;stroke:#000000;stroke-width:0.6851;stroke-miterlimit:10;}
	.st19{fill:#F2F2F2;}
	.st20{fill:url(#SVGID_1_);}
</style>
<sodipodi:namedview  bordercolor="#666666" borderopacity="1" gridtolerance="10" guidetolerance="10" id="namedview243" inkscape:current-layer="svg241" inkscape:cx="-413.24164" inkscape:cy="369.67422" inkscape:pageopacity="0" inkscape:pageshadow="2" inkscape:window-height="986" inkscape:window-maximized="1" inkscape:window-width="1920" inkscape:window-x="-11" inkscape:window-y="-11" inkscape:zoom="0.2979798" objecttolerance="10" pagecolor="#ffffff" showgrid="false">
	</sodipodi:namedview>
<g id="Layer_1" transform="translate(0,-294)" class="st0">
</g>
<g id="Luna" transform="translate(0,-294)" class="st0">
	<path id="path118" inkscape:connector-curvature="0" class="st1" d="M300,395.5c-0.7-0.1-1.3-0.3-1.7-0.8s-0.5-1.2,0-1.7
		c1-0.9,2.8,0.4,3.4,1.2c0.7,0.8,0.7,1.9,0.3,2.9c-0.9,2.1-3.6,2.5-5,0.7c-1.2-1.6-1.9-4.2-1.2-6.1c0.6-1.8,3.3-2.7,5-2.5
		c1.3,0.1,3,0.9,3.9,1.9c1.9,2.2,1,6.2,0.4,8.7c-0.3,1.5-0.4,3-0.5,4.4s-0.1,2.9,0.1,4.3"/>
	<path id="path120" inkscape:connector-curvature="0" class="st1" d="M290.5,383.4c-0.8-0.2-2.2-0.9-2-1.9c0.2-0.9,1.2-1.3,2-0.9
		c0.5,0.3,1,0.9,1.3,1.4c0.4,0.8,0.5,3-0.3,3.7c-0.9,0.7-2.4,0.7-3.3,0.1c-1.8-1.2-3.5-3.6-2.7-5.9c0.4-1.1,1-2.3,2-3
		c1.5-1,4.1-0.4,5.6,0.6c1.6,1.1,2.5,2.8,2.5,4.7c0,1.1,0.1,2.3-0.1,3.4c-0.2,1.1-0.8,2-1.1,3.1c-0.3,1-0.2,2.2-0.2,3.3
		c0.1,0.9,0.3,2,1,2.6c0.2,0.2,0.4,0.3,0.6,0.5"/>
	<path id="path122" inkscape:connector-curvature="0" class="st1" d="M280.4,371.2c-0.8,0.3-1.5,0.2-2-0.5s-0.6-1.6,0-2.2
		c1.4-1.1,3.2-0.1,3.9,1.3c0.5,0.9,0.5,1.9,0.3,2.9c-0.2,0.9-0.6,1.9-1.5,2.4c-1,0.5-2-0.1-2.8-0.7c-1.1-0.8-2.1-1.9-2.4-3.3
		c-0.2-0.9-0.1-1.7,0-2.6c0-1.4,0.8-2.8,2-3.5c1.1-0.6,3-0.8,4.2-0.3c1.2,0.4,2.3,1.7,2.8,2.8c0.7,1.7,0.5,3.5,0.5,5.2
		c0,1.6,0,3.2-0.2,4.8c-0.1,1.3-0.5,2.7,0.3,3.9"/>
	<path id="path124" inkscape:connector-curvature="0" class="st2" d="M268.8,291.7c3-16.1,14-61.3,36.6-76.8
		c27.1-18.6,67.2-12.1,72.6-13.3c5.4-1.1,15.7-6.5,21.4-11.3c-9.5,14.1-31.6,25.7-44.6,30.8s-41.2,14.7-46.3,17
		s-27.7,14.4-30.5,40.1C275.1,303.9,267,300.3,268.8,291.7z"/>
	<path id="path126" inkscape:connector-curvature="0" class="st3" d="M375.4,436.5c-19.5-20.5-46.6-47.4-71.2-55.5
		c-24.6-8.2-8.9-18.6,3.7-11.3C320.6,377,368.3,419.8,375.4,436.5z"/>
	<polygon id="polygon128" class="st3" points="315.8,413 322,409.5 368.5,463.8 	"/>
	<path id="path130" inkscape:connector-curvature="0" class="st3" d="M209.7,309.9c-5.3,38.6,47.7,95.1,73,103.1
		c2.7-0.9-15.2-24.7-11.2-35.9c3.8-2.5,7.3,1.8,9.6,0.5c2.3-1.3-4.2-4.4-5.3-6.8s-16.1-22.5-13.8-1.4c-3.3-9-16-28-12.7-4.7
		c-4.3-17.2-23.8-42-15.3-9.8C223.1,342.2,215.4,305.2,209.7,309.9L209.7,309.9z"/>
	<path id="path132" inkscape:connector-curvature="0" class="st3" d="M333.9,252.7c-9.6,5.1-16.7,23.9-18.4,34.7
		c-1.7,10.8-8.8,22.4-14.1,21.3c-5.4-1.1-13.3-14.8-14.7-22.4s-6.2,2.8-4.2,8.3s7.1,26.8,21.2,26.3c14.1-0.6,18.1-35.3,18.4-38.4
		C322.3,279.3,326.1,261.2,333.9,252.7L333.9,252.7z"/>
	<path id="path134" inkscape:connector-curvature="0" class="st3" d="M380.3,213.7c-68.3,20.4-116.4,56.5-116.4,107.7
		c0,26.9,14.1,68.6,44.9,90l13.6,16.4c0,0-3-6.6-4.4-12.8c0,0,7.2-3.6,8.2-5.6c0.8-1.8-5.6-5.6-2.4-4.8c10.1,2.6-15-13-16.9-22.4
		c-0.4-2.1,8-13.2,6.9-20s-13.4-17.4-19.1-20.8c-18.1-10.8-13.7-50,2.8-69.5C319.2,246.3,360.2,223.3,380.3,213.7L380.3,213.7z"/>
	<path id="path136" inkscape:connector-curvature="0" class="st3" d="M298.6,367.7c16.7,8.8,29.8,9,35.4,5.9
		c8.7-4.8-13.2-28-26-34.7c5.8,7.7,21.7,22.6,20.8,28.3c-0.6,3.7-17.8-1.1-28.8-8.2"/>
	<path id="path138" inkscape:connector-curvature="0" class="st3" d="M317.7,414.9c4.9,3.1,32.8,14.8,35.3,14.8l-3.2-10.2
		c-2.3-1-13.1-9.4-15.8-13.1s-5.5-9.6-16.7-4.5"/>
	<line id="line140" class="st1" x1="343.6" y1="418.3" x2="350.6" y2="422.2"/>
	<path id="path142" inkscape:connector-curvature="0" class="st2" d="M333.9,414.8l-4.5-5.9l-1.9-0.1c-1.3,1.2-2.7,3.3-1.7,6.2
		C328.7,415.7,331.7,415.6,333.9,414.8z"/>
	<path id="path144" inkscape:connector-curvature="0" class="st4" d="M327.5,408.7l-10.3-0.7c2.3,3.8,5.4,5.9,8.6,6.9
		C324.8,412,326.3,409.9,327.5,408.7L327.5,408.7z"/>
	<path id="path146" inkscape:connector-curvature="0" class="st2" d="M304.4,404.2c0.1-1.5,0.2-3,0.5-4.4c0.6-2.5,1.6-6.5-0.4-8.7
		c-0.9-1-2.6-1.8-3.9-1.9c-1.7-0.2-4.4,0.8-5,2.5c-0.4,1-0.3,2.2,0,3.4l0.1,0.1l-0.1-0.1c0.3,1,0.7,2,1.3,2.7c1.4,1.8,4,1.5,5-0.7
		c0.4-0.9,0.4-2-0.3-2.9c-0.6-0.8-2.4-2.2-3.4-1.2c-0.5,0.5-0.4,1.2,0,1.7s1.1,0.7,1.7,0.8c-0.7-0.1-1.3-0.3-1.7-0.8s-0.5-1.2,0-1.7
		c1-0.9,2.8,0.4,3.4,1.2c0.7,0.8,0.7,1.9,0.3,2.9c-0.9,2.1-3.6,2.5-5,0.7c-0.6-0.7-1-1.7-1.3-2.7c-0.2-0.1-0.3-0.3-0.5-0.4
		c-0.7-0.7-0.9-1.7-1-2.6c-0.1-1-0.1-2.3,0.2-3.3c0.3-1.1,0.9-2,1.1-3.1c0.2-1.1,0.1-2.3,0.1-3.4c0-1.9-1-3.6-2.5-4.7
		c-1.4-1-4-1.6-5.6-0.6c-1,0.7-1.6,1.9-2,3c-0.2,0.4-0.2,0.9-0.2,1.4c0,0,0,0.1,0.1,0.1c0,0,0-0.1-0.1-0.1c0.1,1.8,1.5,3.6,2.9,4.5
		c0.9,0.6,2.4,0.6,3.3-0.1c0.8-0.7,0.6-2.9,0.3-3.7c-0.2-0.5-0.8-1.1-1.3-1.4c-0.8-0.4-1.8,0-2,0.9c-0.2,1,1.2,1.7,2,1.9
		c-0.8-0.2-2.2-0.9-2-1.9c0.2-0.9,1.2-1.3,2-0.9c0.5,0.3,1,0.9,1.3,1.4c0.4,0.8,0.5,3-0.3,3.7c-0.9,0.7-2.4,0.7-3.3,0.1
		c-1.5-0.9-2.8-2.7-2.9-4.5c-0.7-1.2-0.4-2.5-0.2-3.8c0.2-1.6,0.2-3.2,0.2-4.8c0-1.8,0.2-3.6-0.5-5.2c-0.5-1.1-1.6-2.4-2.8-2.8
		c-1.2-0.5-3.1-0.3-4.2,0.3c-1.2,0.7-2,2.1-2,3.5c0,0.7-0.1,1.5,0,2.2c0.4,0.9,0.9,1.8,1.3,2.7c0.3,0.4,0.7,0.7,1.1,1
		c0.8,0.6,1.9,1.2,2.8,0.7s1.3-1.5,1.5-2.4c0.3-1,0.2-2-0.3-2.9c-0.7-1.4-2.5-2.5-3.9-1.3c-0.7,0.6-0.5,1.6,0,2.2
		c0.5,0.8,1.2,0.8,2,0.5c-0.8,0.3-1.5,0.2-2-0.5s-0.6-1.6,0-2.2c1.4-1.1,3.2-0.1,3.9,1.3c0.5,0.9,0.5,1.9,0.3,2.9
		c-0.2,0.9-0.6,1.9-1.5,2.4c-1,0.5-2-0.1-2.8-0.7c-0.4-0.3-0.8-0.6-1.1-1c6.6,13.1,15.6,25.5,27.4,34.9
		C304.3,406.9,304.3,405.6,304.4,404.2L304.4,404.2z"/>
</g>
<g id="Celestia" transform="translate(0,-294)" class="st0">
	<path id="path149" inkscape:connector-curvature="0" class="st1" d="M507.8,258.5c0.7,0.1,1.3,0.3,1.7,0.8c0.4,0.5,0.5,1.2,0,1.7
		c-1,0.9-2.8-0.4-3.4-1.2c-0.7-0.8-0.7-1.9-0.3-2.9c0.9-2.1,3.6-2.5,5-0.7c1.2,1.6,1.9,4.2,1.2,6.1c-0.6,1.8-3.3,2.7-5,2.5
		c-1.3-0.1-3-0.9-3.9-1.9c-1.9-2.2-1-6.2-0.4-8.7c0.3-1.5,0.4-3,0.5-4.4s0.1-2.9-0.1-4.3"/>
	<path id="path151" inkscape:connector-curvature="0" class="st1" d="M517.3,270.6c0.8,0.2,2.2,0.9,2,1.9c-0.2,0.9-1.2,1.3-2,0.9
		c-0.5-0.3-1-0.9-1.3-1.4c-0.4-0.8-0.5-3,0.3-3.7c0.9-0.7,2.4-0.7,3.3-0.1c1.8,1.2,3.5,3.6,2.7,5.9c-0.4,1.1-1,2.3-2,3
		c-1.5,1-4.1,0.4-5.6-0.6c-1.6-1.1-2.5-2.8-2.5-4.7c0-1.1-0.1-2.3,0.1-3.4s0.8-2,1.1-3.1c0.3-1,0.2-2.2,0.2-3.3
		c-0.1-0.9-0.3-2-1-2.6c-0.2-0.2-0.4-0.3-0.6-0.5"/>
	<path id="path153" inkscape:connector-curvature="0" class="st1" d="M527.4,282.9c0.8-0.3,1.5-0.2,2,0.5s0.6,1.6,0,2.2
		c-1.4,1.1-3.2,0.1-3.9-1.3c-0.5-0.9-0.5-1.9-0.3-2.9c0.2-0.9,0.6-1.9,1.5-2.4c1-0.5,2,0.1,2.8,0.7c1.1,0.8,2.1,1.9,2.4,3.3
		c0.2,0.9,0.1,1.7,0,2.6c0,1.4-0.8,2.8-2,3.5c-1.1,0.6-3,0.8-4.2,0.3c-1.2-0.4-2.3-1.7-2.8-2.8c-0.7-1.7-0.5-3.5-0.5-5.2
		c0-1.6,0-3.2,0.2-4.8c0.1-1.3,0.5-2.7-0.3-3.9"/>
	<path id="path155" inkscape:connector-curvature="0" class="st5" d="M539,362.3c-3,16.1-14,61.3-36.6,76.8
		c-27.1,18.6-67.2,12.1-72.6,13.3c-5.4,1.1-15.7,6.5-21.4,11.3c9.5-14.1,31.6-25.7,44.6-30.8c13-5.1,41.2-14.7,46.3-17
		c5.1-2.3,27.7-14.4,30.5-40.1C532.7,350.2,540.8,353.8,539,362.3L539,362.3z"/>
	<path id="path157" inkscape:connector-curvature="0" class="st6" d="M432.4,217.5c19.5,20.5,46.6,47.4,71.2,55.5
		c24.6,8.2,8.9,18.6-3.7,11.3C487.2,277,439.5,234.3,432.4,217.5L432.4,217.5z"/>
	<polygon id="polygon159" class="st6" points="492,241 485.8,244.5 439.3,190.3 	"/>
	<path id="path161" inkscape:connector-curvature="0" class="st6" d="M598.1,344.2c5.3-38.6-47.7-95.1-73-103.2
		c-2.7,0.9,15.2,24.7,11.2,35.9c-3.8,2.5-7.3-1.8-9.6-0.5s4.2,4.4,5.3,6.8s16.1,22.5,13.8,1.4c3.3,9,16,28,12.7,4.7
		c4.3,17.2,23.8,42,15.3,9.8C584.7,311.9,592.4,348.8,598.1,344.2L598.1,344.2z"/>
	<path id="path163" inkscape:connector-curvature="0" class="st6" d="M473.9,401.3c9.6-5.1,16.7-23.9,18.4-34.7
		c1.7-10.8,8.8-22.4,14.1-21.3c5.4,1.1,13.3,14.8,14.7,22.4s6.2-2.8,4.2-8.3s-7.1-26.8-21.2-26.3c-14.1,0.6-18.1,35.3-18.4,38.4
		C485.5,374.8,481.7,392.9,473.9,401.3L473.9,401.3z"/>
	<path id="path165" inkscape:connector-curvature="0" class="st6" d="M427.5,440.3c68.3-20.4,116.4-56.5,116.4-107.7
		c0-26.9-14.1-68.6-44.9-90l-13.6-16.4c0,0,3,6.6,4.4,12.8c0,0-7.2,3.6-8.2,5.6c-0.8,1.8,5.6,5.6,2.4,4.8c-10.1-2.6,15,13,16.9,22.4
		c0.4,2.1-8,13.2-6.9,20s13.4,17.4,19.1,20.8c18.1,10.8,13.7,50-2.8,69.5C488.6,407.8,447.6,430.7,427.5,440.3L427.5,440.3z"/>
	<path id="path167" inkscape:connector-curvature="0" class="st6" d="M509.2,286.3c-16.7-8.8-29.8-9-35.4-5.9
		c-8.7,4.8,13.2,28,26,34.7c-5.8-7.7-21.7-22.6-20.8-28.3c0.6-3.7,17.8,1.1,28.8,8.2"/>
	<path id="path169" inkscape:connector-curvature="0" class="st6" d="M490.2,239.2c-4.9-3.1-32.8-14.8-35.3-14.8l3.2,10.2
		c2.3,1,13.1,9.4,15.8,13.1c2.7,3.7,5.5,9.6,16.7,4.5"/>
	<line id="line171" class="st1" x1="464.2" y1="235.7" x2="457.2" y2="231.8"/>
	<path id="path173" inkscape:connector-curvature="0" class="st5" d="M473.9,239.3l4.5,5.9l1.9,0.1c1.3-1.2,2.7-3.3,1.7-6.2
		C479.1,238.3,476.1,238.4,473.9,239.3z"/>
	<path id="path175" inkscape:connector-curvature="0" class="st4" d="M480.3,245.3l10.3,0.7c-2.3-3.8-5.4-5.9-8.6-6.9
		C483,242.1,481.5,244.2,480.3,245.3L480.3,245.3z"/>
	<path id="path177" inkscape:connector-curvature="0" class="st5" d="M503.4,249.8c-0.1,1.5-0.2,3-0.5,4.4c-0.6,2.5-1.6,6.5,0.4,8.7
		c0.9,1,2.6,1.8,3.9,1.9c1.7,0.2,4.4-0.8,5-2.5c0.4-1,0.3-2.2,0-3.4l-0.1-0.1l0.1,0.1c-0.3-1-0.7-2-1.3-2.7c-1.4-1.8-4-1.5-5,0.7
		c-0.4,0.9-0.4,2,0.3,2.9c0.6,0.8,2.4,2.2,3.4,1.2c0.5-0.5,0.4-1.2,0-1.7s-1.1-0.7-1.7-0.8c0.7,0.1,1.3,0.3,1.7,0.8
		c0.4,0.5,0.5,1.2,0,1.7c-1,0.9-2.8-0.4-3.4-1.2c-0.7-0.8-0.7-1.9-0.3-2.9c0.9-2.1,3.6-2.5,5-0.7c0.6,0.7,1,1.7,1.3,2.7
		c0.2,0.1,0.3,0.3,0.5,0.4c0.7,0.7,0.9,1.7,1,2.6c0.1,1,0.1,2.3-0.2,3.3c-0.3,1.1-0.9,2-1.1,3.1s-0.1,2.3-0.1,3.4
		c0,1.9,1,3.6,2.5,4.7c1.4,1,4,1.6,5.6,0.6c1-0.7,1.6-1.9,2-3c0.2-0.4,0.2-0.9,0.2-1.4c0,0,0-0.1-0.1-0.1c0,0,0,0.1,0.1,0.1
		c-0.1-1.8-1.5-3.6-2.9-4.5c-0.9-0.6-2.4-0.6-3.3,0.1c-0.8,0.7-0.6,2.9-0.3,3.7c0.2,0.5,0.8,1.1,1.3,1.4c0.8,0.4,1.8,0,2-0.9
		c0.2-1-1.2-1.7-2-1.9c0.8,0.2,2.2,0.9,2,1.9c-0.2,0.9-1.2,1.3-2,0.9c-0.5-0.3-1-0.9-1.3-1.4c-0.4-0.8-0.5-3,0.3-3.7
		c0.9-0.7,2.4-0.7,3.3-0.1c1.5,0.9,2.8,2.7,2.9,4.5c0.7,1.2,0.4,2.5,0.2,3.8c-0.2,1.6-0.2,3.2-0.2,4.8c0,1.8-0.2,3.6,0.5,5.2
		c0.5,1.1,1.6,2.4,2.8,2.8c1.2,0.5,3.1,0.3,4.2-0.3c1.2-0.7,2-2.1,2-3.5c0-0.7,0.1-1.5,0-2.2c-0.4-0.9-0.9-1.8-1.3-2.7
		c-0.3-0.4-0.7-0.7-1.1-1c-0.8-0.6-1.9-1.2-2.8-0.7c-0.9,0.5-1.3,1.5-1.5,2.4c-0.3,1-0.2,2,0.3,2.9c0.7,1.4,2.5,2.5,3.9,1.3
		c0.7-0.6,0.5-1.6,0-2.2c-0.5-0.8-1.2-0.8-2-0.5c0.8-0.3,1.5-0.2,2,0.5s0.6,1.6,0,2.2c-1.4,1.1-3.2,0.1-3.9-1.3
		c-0.5-0.9-0.5-1.9-0.3-2.9c0.2-0.9,0.6-1.9,1.5-2.4c1-0.5,2,0.1,2.8,0.7c0.4,0.3,0.8,0.6,1.1,1c-6.6-13.1-15.6-25.5-27.4-34.9
		C503.5,247.1,503.5,248.5,503.4,249.8L503.4,249.8z"/>
</g>
<polygon id="polygon5" class="st7" points="76.4,499 76.4,1 525.4,1 525.4,499 300.9,426 "/>
<path id="path10" inkscape:connector-curvature="0" class="st8" d="M505.4,21v450.5L307.1,407l-6.2-2l-6.2,2L96.4,471.5V21H505.4
	 M525.4,1h-449v498l224.5-73l224.5,73V1z"/>
<polygon id="polygon15" class="st8" points="137.1,46.7 129.5,52.3 132.4,61.3 124.8,55.7 117.1,61.3 120,52.3 112.4,46.7 
	121.8,46.7 124.8,37.8 127.7,46.7 "/>
<polygon id="polygon17" class="st8" points="182.1,46.7 174.5,52.3 177.4,61.3 169.8,55.7 162.1,61.3 165,52.3 157.4,46.7 
	166.8,46.7 169.8,37.8 172.7,46.7 "/>
<polygon id="polygon19" class="st8" points="137.1,86.7 129.5,92.3 132.4,101.3 124.8,95.7 117.1,101.3 120,92.3 112.4,86.7 
	121.8,86.7 124.8,77.8 127.7,86.7 "/>
<polygon id="polygon21" class="st8" points="182.1,86.7 174.5,92.3 177.4,101.3 169.8,95.7 162.1,101.3 165,92.3 157.4,86.7 
	166.8,86.7 169.8,77.8 172.7,86.7 "/>
<polygon id="polygon23" class="st8" points="137.1,126.7 129.5,132.3 132.4,141.3 124.8,135.7 117.1,141.3 120,132.3 112.4,126.7 
	121.8,126.7 124.8,117.8 127.7,126.7 "/>
<polygon id="polygon25" class="st8" points="182.1,126.7 174.5,132.3 177.4,141.3 169.8,135.7 162.1,141.3 165,132.3 157.4,126.7 
	166.8,126.7 169.8,117.8 172.7,126.7 "/>
<polygon id="polygon29" class="st8" points="227.1,46.7 219.5,52.3 222.4,61.3 214.8,55.7 207.1,61.3 210,52.3 202.4,46.7 
	211.8,46.7 214.8,37.8 217.7,46.7 "/>
<polygon id="polygon31" class="st8" points="272.1,46.7 264.5,52.3 267.4,61.3 259.8,55.7 252.1,61.3 255,52.3 247.4,46.7 
	256.8,46.7 259.8,37.8 262.7,46.7 "/>
<polygon id="polygon33" class="st8" points="137.1,305.2 129.5,310.8 132.4,319.8 124.8,314.2 117.1,319.8 120,310.8 112.4,305.2 
	121.8,305.2 124.8,296.3 127.7,305.2 "/>
<polygon id="polygon35" class="st8" points="182.1,328.8 174.5,334.3 177.4,343.3 169.8,337.7 162.1,343.3 165,334.3 157.4,328.8 
	166.8,328.8 169.8,319.8 172.7,328.8 "/>
<polygon id="polygon37" class="st8" points="137.1,345.2 129.5,350.8 132.4,359.8 124.8,354.2 117.1,359.8 120,350.8 112.4,345.2 
	121.8,345.2 124.8,336.3 127.7,345.2 "/>
<polygon id="polygon39" class="st8" points="182.1,368.8 174.5,374.3 177.4,383.3 169.8,377.7 162.1,383.3 165,374.3 157.4,368.8 
	166.8,368.8 169.8,359.8 172.7,368.8 "/>
<polygon id="polygon41" class="st8" points="137.1,385.2 129.5,390.8 132.4,399.8 124.8,394.2 117.1,399.8 120,390.8 112.4,385.2 
	121.8,385.2 124.8,376.3 127.7,385.2 "/>
<polygon id="polygon43" class="st8" points="227.1,345.2 219.5,350.8 222.4,359.8 214.8,354.2 207.1,359.8 210,350.8 202.4,345.2 
	211.8,345.2 214.8,336.3 217.7,345.2 "/>
<polygon id="polygon45" class="st8" points="227.1,385.2 219.5,390.8 222.4,399.8 214.8,394.2 207.1,399.8 210,390.8 202.4,385.2 
	211.8,385.2 214.8,376.3 217.7,385.2 "/>
<polygon id="polygon47" class="st8" points="182.1,408.8 174.5,414.3 177.4,423.3 169.8,417.7 162.1,423.3 165,414.3 157.4,408.8 
	166.8,408.8 169.8,399.8 172.7,408.8 "/>
<polygon id="polygon49" class="st8" points="137.1,425.2 129.5,430.8 132.4,439.8 124.8,434.2 117.1,439.8 120,430.8 112.4,425.2 
	121.8,425.2 124.8,416.3 127.7,425.2 "/>
<polygon id="polygon51" class="st8" points="272.1,368.8 264.5,374.3 267.4,383.3 259.8,377.7 252.1,383.3 255,374.3 247.4,368.8 
	256.8,368.8 259.8,359.8 262.7,368.8 "/>
<polygon id="polygon53" class="st8" points="463.7,46.7 471.3,52.3 468.4,61.3 476,55.7 483.7,61.3 480.8,52.3 488.4,46.7 479,46.7 
	476,37.8 473.1,46.7 "/>
<polygon id="polygon55" class="st8" points="418.7,46.7 426.3,52.3 423.4,61.3 431,55.7 438.7,61.3 435.8,52.3 443.4,46.7 434,46.7 
	431,37.8 428.1,46.7 "/>
<polygon id="polygon57" class="st8" points="463.7,86.7 471.3,92.3 468.4,101.3 476,95.7 483.7,101.3 480.8,92.3 488.4,86.7 
	479,86.7 476,77.8 473.1,86.7 "/>
<polygon id="polygon59" class="st8" points="418.7,86.7 426.3,92.3 423.4,101.3 431,95.7 438.7,101.3 435.8,92.3 443.4,86.7 
	434,86.7 431,77.8 428.1,86.7 "/>
<polygon id="polygon61" class="st8" points="463.7,126.7 471.3,132.3 468.4,141.3 476,135.7 483.7,141.3 480.8,132.3 488.4,126.7 
	479,126.7 476,117.8 473.1,126.7 "/>
<polygon id="polygon63" class="st8" points="418.7,126.7 426.3,132.3 423.4,141.3 431,135.7 438.7,141.3 435.8,132.3 443.4,126.7 
	434,126.7 431,117.8 428.1,126.7 "/>
<polygon id="polygon65" class="st8" points="463.7,166.7 471.3,172.3 468.4,181.3 476,175.7 483.7,181.3 480.8,172.3 488.4,166.7 
	479,166.7 476,157.8 473.1,166.7 "/>
<polygon id="polygon67" class="st8" points="373.7,46.7 381.3,52.3 378.4,61.3 386,55.7 393.7,61.3 390.8,52.3 398.4,46.7 389,46.7 
	386,37.8 383.1,46.7 "/>
<polygon id="polygon69" class="st8" points="328.7,46.7 336.3,52.3 333.4,61.3 341,55.7 348.7,61.3 345.8,52.3 353.4,46.7 344,46.7 
	341,37.8 338.1,46.7 "/>
<polygon id="polygon71" class="st8" points="463.7,305.2 471.3,310.8 468.4,319.8 476,314.2 483.7,319.8 480.8,310.8 488.4,305.2 
	479,305.2 476,296.3 473.1,305.2 "/>
<polygon id="polygon73" class="st8" points="418.7,328.8 426.3,334.3 423.4,343.3 431,337.7 438.7,343.3 435.8,334.3 443.4,328.8 
	434,328.8 431,319.8 428.1,328.8 "/>
<polygon id="polygon75" class="st8" points="463.7,345.2 471.3,350.8 468.4,359.8 476,354.2 483.7,359.8 480.8,350.8 488.4,345.2 
	479,345.2 476,336.3 473.1,345.2 "/>
<polygon id="polygon77" class="st8" points="418.7,368.8 426.3,374.3 423.4,383.3 431,377.7 438.7,383.3 435.8,374.3 443.4,368.8 
	434,368.8 431,359.8 428.1,368.8 "/>
<polygon id="polygon79" class="st8" points="463.7,385.2 471.3,390.8 468.4,399.8 476,394.2 483.7,399.8 480.8,390.8 488.4,385.2 
	479,385.2 476,376.3 473.1,385.2 "/>
<polygon id="polygon81" class="st8" points="373.7,345.2 381.3,350.8 378.4,359.8 386,354.2 393.7,359.8 390.8,350.8 398.4,345.2 
	389,345.2 386,336.3 383.1,345.2 "/>
<polygon id="polygon83" class="st8" points="373.7,385.2 381.3,390.8 378.4,399.8 386,394.2 393.7,399.8 390.8,390.8 398.4,385.2 
	389,385.2 386,376.3 383.1,385.2 "/>
<polygon id="polygon85" class="st8" points="418.7,408.8 426.3,414.3 423.4,423.3 431,417.7 438.7,423.3 435.8,414.3 443.4,408.8 
	434,408.8 431,399.8 428.1,408.8 "/>
<polygon id="polygon87" class="st8" points="463.7,425.2 471.3,430.8 468.4,439.8 476,434.2 483.7,439.8 480.8,430.8 488.4,425.2 
	479,425.2 476,416.3 473.1,425.2 "/>
<polygon id="polygon89" class="st8" points="328.7,368.8 336.3,374.3 333.4,383.3 341,377.7 348.7,383.3 345.8,374.3 353.4,368.8 
	344,368.8 341,359.8 338.1,368.8 "/>
<polygon id="polygon91" class="st8" points="288.5,368.8 296.2,374.3 293.3,383.3 300.9,377.7 308.5,383.3 305.6,374.3 313.3,368.8 
	303.8,368.8 300.9,359.8 298,368.8 "/>
<g id="Layer_5" transform="translate(-99,-105)">
	<path id="path94" inkscape:connector-curvature="0" class="st9" d="M399.9,341.5c-7.3,0-14,2.2-19.6,6c2.3-0.6,4.8-0.9,7.3-0.9
		c16.5,0,29.9,13.4,29.9,29.9s-13.4,29.9-29.9,29.9c-2.5,0-5-0.3-7.3-0.9c5.6,3.8,12.4,6,19.6,6c19.3,0,35-15.7,35-35
		S419.2,341.5,399.9,341.5z"/>
	<path id="path96" inkscape:connector-curvature="0" class="st10" d="M417.4,376.5c0-16.5-13.4-29.9-29.9-29.9c-2.5,0-5,0.3-7.3,0.9
		c-9.3,6.3-15.4,16.9-15.4,29s6.1,22.7,15.4,29c2.3,0.6,4.8,0.9,7.3,0.9C404,406.4,417.4,393,417.4,376.5z"/>
</g>
<g id="Layer_6" transform="translate(-99,-105)">
	<path id="path99" inkscape:connector-curvature="0" class="st11" d="M375.9,229.1c3.9-5.5,13.1-9.5,19.4,1.2
		c3,5.1-1.3,8.2-0.7,11.6c0.5,3,1.7,5.5,5.3,7.9c3.6,2.4-12.2,7.4-14,6.1c-1.1-0.7-5.2-1.4-7.1-7.5c-2.5-7.9,9.4-10.4,7.6-16.7
		C385.6,228.5,383,225.7,375.9,229.1L375.9,229.1z"/>
	<path id="path101" inkscape:connector-curvature="0" class="st11" d="M413.7,224.9c6.6-1.1,16,2.5,12.9,14.5
		c-1.5,5.7-6.7,4.9-8.7,7.7c-1.8,2.5-2.7,5.1-1.8,9.3c0.9,4.2-13.8-3.4-14.2-5.5c-0.2-1.3-2.7-4.6,0.3-10.3c3.9-7.3,14-0.7,17.2-6.5
		C420.9,231.2,421,227.5,413.7,224.9L413.7,224.9z"/>
	<path id="path103" inkscape:connector-curvature="0" class="st11" d="M443.3,248.5c5.5,3.9,9.5,13.1-1.2,19.4
		c-5.1,3-8.2-1.3-11.6-0.7c-3,0.5-5.5,1.7-7.9,5.3c-2.4,3.6-7.4-12.2-6.1-14c0.7-1.1,1.4-5.2,7.5-7.1c7.9-2.5,10.4,9.4,16.7,7.6
		C443.9,258.2,446.7,255.6,443.3,248.5L443.3,248.5z"/>
	<path id="path105" inkscape:connector-curvature="0" class="st11" d="M447.5,286.3c1.1,6.6-2.5,16-14.5,12.9
		c-5.7-1.5-4.9-6.7-7.7-8.7c-2.5-1.8-5.1-2.7-9.3-1.8c-4.2,0.9,3.4-13.8,5.5-14.2c1.3-0.2,4.6-2.7,10.3,0.3c7.3,3.9,0.7,14,6.5,17.2
		C441.2,293.5,444.9,293.6,447.5,286.3L447.5,286.3z"/>
	<path id="path107" inkscape:connector-curvature="0" class="st11" d="M423.9,315.9c-3.9,5.5-13.1,9.5-19.4-1.2
		c-3-5.1,1.3-8.2,0.7-11.6c-0.5-3-1.7-5.5-5.3-7.9c-3.6-2.4,12.2-7.4,14-6.1c1.1,0.7,5.2,1.4,7.1,7.5c2.5,7.9-9.4,10.4-7.6,16.7
		C414.2,316.5,416.8,319.3,423.9,315.9L423.9,315.9z"/>
	<path id="path109" inkscape:connector-curvature="0" class="st11" d="M386.1,320.1c-6.6,1.1-16-2.5-12.9-14.5
		c1.5-5.7,6.7-4.9,8.7-7.7c1.8-2.5,2.7-5.1,1.8-9.3c-0.9-4.2,13.8,3.4,14.2,5.5c0.2,1.3,2.7,4.6-0.3,10.3c-3.9,7.3-14,0.7-17.2,6.5
		C378.9,313.8,378.8,317.5,386.1,320.1L386.1,320.1z"/>
	<path id="path111" inkscape:connector-curvature="0" class="st11" d="M356.5,296.5c-5.5-3.9-9.5-13.1,1.2-19.4
		c5.1-3,8.2,1.3,11.6,0.7c3-0.5,5.5-1.7,7.9-5.3c2.4-3.6,7.4,12.2,6.1,14c-0.7,1.1-1.4,5.2-7.5,7.1c-7.9,2.5-10.4-9.4-16.7-7.6
		C355.9,286.8,353.1,289.4,356.5,296.5L356.5,296.5z"/>
	<path id="path113" inkscape:connector-curvature="0" class="st11" d="M352.3,258.7c-1.1-6.6,2.5-16,14.5-12.9
		c5.7,1.5,4.9,6.7,7.7,8.7c2.5,1.8,5.1,2.7,9.3,1.8c4.2-0.9-3.4,13.8-5.5,14.2c-1.3,0.2-4.6,2.7-10.3-0.3c-7.3-3.9-0.7-14-6.5-17.2
		C358.6,251.5,354.9,251.4,352.3,258.7L352.3,258.7z"/>
	<circle id="circle115" class="st12" cx="399.9" cy="272.5" r="24.5"/>
</g>
<g id="Ponies" transform="translate(-99,-105)">
	<path id="path180" inkscape:connector-curvature="0" class="st13" d="M283.9,362.7c-0.6-0.1-1.2-0.3-1.6-0.7
		c-0.4-0.5-0.5-1.1,0-1.6c0.9-0.9,2.5,0.4,3.1,1.1s0.6,1.8,0.3,2.6c-0.9,2-3.2,2.3-4.6,0.6c-1.1-1.4-1.7-3.8-1.1-5.6
		c0.6-1.6,3-2.5,4.5-2.3c1.2,0.1,2.8,0.9,3.6,1.8c1.8,2,0.9,5.7,0.4,8c-0.3,1.3-0.4,2.7-0.5,4.1c-0.1,1.3-0.1,2.6,0.1,3.9"/>
	<path id="path182" inkscape:connector-curvature="0" class="st13" d="M275.3,351.6c-0.7-0.2-2-0.8-1.8-1.7c0.1-0.8,1.1-1.2,1.8-0.8
		c0.4,0.2,0.9,0.8,1.1,1.3c0.3,0.8,0.5,2.8-0.3,3.4c-0.8,0.7-2.2,0.6-3,0.1c-1.7-1.1-3.2-3.3-2.5-5.4c0.4-1,0.9-2.1,1.8-2.7
		c1.4-0.9,3.8-0.4,5.1,0.5c1.4,1,2.3,2.5,2.3,4.3c0,1,0,2.1-0.1,3.1c-0.2,1-0.7,1.9-1,2.8c-0.3,0.9-0.2,2-0.1,3
		c0.1,0.8,0.3,1.8,0.9,2.4c0.2,0.2,0.3,0.3,0.5,0.5"/>
	<path id="path184" inkscape:connector-curvature="0" class="st13" d="M266,340.4c-0.7,0.3-1.4,0.2-1.9-0.5c-0.4-0.6-0.6-1.5,0-2
		c1.3-1,2.9-0.1,3.5,1.2c0.4,0.8,0.5,1.8,0.3,2.7c-0.2,0.8-0.5,1.8-1.4,2.2c-0.9,0.5-1.9-0.1-2.6-0.6c-1-0.7-1.9-1.8-2.2-3
		c-0.2-0.8-0.1-1.6,0-2.4c0-1.2,0.8-2.6,1.9-3.2c1-0.6,2.7-0.7,3.8-0.3c1.1,0.4,2.1,1.5,2.5,2.6c0.6,1.5,0.4,3.2,0.4,4.8
		c0,1.5,0,2.9-0.2,4.4c-0.1,1.2-0.4,2.5,0.3,3.6"/>
	<path id="path186" inkscape:connector-curvature="0" class="st14" d="M255.4,267.9c2.7-14.7,12.8-56,33.4-70.2
		c24.8-17,61.4-11.1,66.3-12.1s14.3-5.9,19.5-10.3c-8.7,12.9-28.8,23.5-40.7,28.1c-11.9,4.6-37.7,13.4-42.3,15.5
		s-25.3,13.2-27.9,36.6C261.3,279,253.8,275.7,255.4,267.9L255.4,267.9z"/>
	<path id="path188" inkscape:connector-curvature="0" class="st15" d="M352.9,400.2c-17.8-18.7-42.6-43.3-65-50.7
		c-22.5-7.5-8.1-17,3.4-10.3C302.8,345.8,346.4,384.8,352.9,400.2z"/>
	<polygon id="polygon190" class="st15" points="298.4,378.7 304.1,375.5 346.6,425 	"/>
	<path id="path192" inkscape:connector-curvature="0" class="st15" d="M201.5,284.4c-4.9,35.3,43.5,86.9,66.7,94.2
		c2.4-0.8-13.9-22.5-10.2-32.7c3.5-2.3,6.7,1.7,8.7,0.5c2.1-1.2-3.8-4-4.8-6.2s-14.7-20.6-12.6-1.2c-3-8.2-14.7-25.6-11.6-4.3
		c-4-15.7-21.8-38.4-14-9C213.7,314,206.7,280.2,201.5,284.4L201.5,284.4z"/>
	<path id="path194" inkscape:connector-curvature="0" class="st15" d="M315,232.3c-8.8,4.6-15.3,21.8-16.8,31.7
		c-1.5,9.9-8,20.5-12.9,19.4c-4.9-1-12.1-13.5-13.4-20.5c-1.3-6.9-5.7,2.6-3.9,7.5c1.8,5,6.5,24.5,19.4,24s16.5-32.3,16.8-35.1
		C304.4,256.5,307.8,240,315,232.3L315,232.3z"/>
	<path id="path196" inkscape:connector-curvature="0" class="st15" d="M357.3,196.6C294.9,215.3,250.9,248.2,251,295
		c0,24.5,12.9,62.6,41,82.3l12.4,15c0,0-2.8-6-4-11.7c0,0,6.6-3.2,7.4-5.1c0.8-1.6-5.1-5.1-2.2-4.4c9.3,2.4-13.7-11.9-15.4-20.5
		c-0.4-1.9,7.3-12,6.3-18.2s-12.3-15.9-17.5-19c-16.5-9.9-12.5-45.7,2.6-63.5C301.5,226.4,339,205.4,357.3,196.6L357.3,196.6z"/>
	<path id="path198" inkscape:connector-curvature="0" class="st15" d="M282.7,337.3c15.2,8,27.2,8.2,32.3,5.4
		c8-4.4-12-25.5-23.7-31.7c5.3,7.1,19.8,20.6,19,25.8c-0.5,3.4-16.3-1-26.3-7.5"/>
	<path id="path200" inkscape:connector-curvature="0" class="st15" d="M300.1,380.4c4.5,2.8,29.9,13.5,32.2,13.5l-2.9-9.3
		c-2.1-0.9-12-8.6-14.4-12c-2.5-3.4-5-8.8-15.2-4.1"/>
	<line id="line202" class="st13" x1="323.5" y1="383" x2="329.9" y2="386.5"/>
	<path id="path204" inkscape:connector-curvature="0" class="st14" d="M315,380.3l-4.1-5.4l-1.7-0.1c-1.2,1.1-2.5,3-1.5,5.6
		C310.2,381.1,312.9,381,315,380.3z"/>
	<path id="path206" inkscape:connector-curvature="0" class="st16" d="M309.1,374.7l-9.4-0.6c2.1,3.4,4.9,5.4,7.9,6.3
		C306.6,377.7,308,375.8,309.1,374.7L309.1,374.7z"/>
	<path id="path208" inkscape:connector-curvature="0" class="st14" d="M288,370.6c0.1-1.4,0.2-2.7,0.5-4.1c0.5-2.3,1.4-5.9-0.4-8
		c-0.8-0.9-2.4-1.6-3.6-1.8c-1.6-0.2-4,0.7-4.5,2.3c-0.3,0.9-0.3,2,0,3.1l0.1,0.1l-0.1-0.1c0.2,0.9,0.6,1.8,1.2,2.5
		c1.3,1.7,3.7,1.4,4.6-0.6c0.4-0.9,0.3-1.9-0.3-2.6s-2.2-2-3.1-1.1c-0.5,0.4-0.3,1.1,0,1.6c0.4,0.5,1,0.7,1.6,0.7
		c-0.6-0.1-1.2-0.3-1.6-0.7c-0.4-0.5-0.5-1.1,0-1.6c0.9-0.9,2.5,0.4,3.1,1.1s0.6,1.8,0.3,2.6c-0.9,2-3.2,2.3-4.6,0.6
		c-0.5-0.7-0.9-1.5-1.2-2.5c-0.2-0.1-0.3-0.2-0.4-0.4c-0.6-0.6-0.8-1.6-0.9-2.4c-0.1-0.9-0.1-2.1,0.1-3c0.3-1,0.9-1.8,1-2.8
		c0.2-1,0.1-2.1,0.1-3.1c0-1.8-0.9-3.3-2.3-4.3c-1.3-0.9-3.7-1.4-5.1-0.5c-0.9,0.6-1.5,1.7-1.8,2.7c-0.1,0.4-0.2,0.8-0.2,1.2
		c0,0,0,0.1,0.1,0.1c0,0,0-0.1-0.1-0.1c0.1,1.7,1.3,3.3,2.7,4.1c0.8,0.5,2.2,0.6,3-0.1c0.7-0.6,0.6-2.6,0.3-3.4
		c-0.2-0.5-0.7-1-1.1-1.3c-0.7-0.4-1.7,0-1.8,0.8c-0.2,0.9,1.1,1.6,1.8,1.7c-0.7-0.2-2-0.8-1.8-1.7c0.1-0.8,1.1-1.2,1.8-0.8
		c0.4,0.2,0.9,0.8,1.1,1.3c0.3,0.8,0.5,2.8-0.3,3.4c-0.8,0.7-2.2,0.6-3,0.1c-1.3-0.8-2.6-2.5-2.7-4.1c-0.6-1.1-0.3-2.3-0.2-3.5
		c0.1-1.4,0.2-2.9,0.2-4.4c0-1.6,0.2-3.3-0.4-4.8c-0.4-1-1.5-2.2-2.5-2.6c-1.1-0.4-2.8-0.3-3.8,0.3c-1.1,0.6-1.8,1.9-1.9,3.2
		c0,0.7-0.1,1.3,0,2c0.4,0.8,0.8,1.7,1.2,2.5c0.3,0.3,0.7,0.7,1,0.9c0.7,0.5,1.7,1.1,2.6,0.6c0.8-0.4,1.1-1.4,1.4-2.2
		c0.2-0.9,0.2-1.8-0.3-2.7c-0.6-1.2-2.3-2.2-3.5-1.2c-0.6,0.5-0.5,1.4,0,2c0.5,0.7,1.1,0.7,1.9,0.5c-0.7,0.3-1.4,0.2-1.9-0.5
		c-0.4-0.6-0.6-1.5,0-2c1.3-1,2.9-0.1,3.5,1.2c0.4,0.8,0.5,1.8,0.3,2.7c-0.2,0.8-0.5,1.8-1.4,2.2c-0.9,0.5-1.9-0.1-2.6-0.6
		c-0.4-0.3-0.7-0.6-1-0.9c6,12,14.3,23.3,25,31.9C287.9,373.1,287.9,371.9,288,370.6L288,370.6z"/>
	<path id="path210" inkscape:connector-curvature="0" class="st13" d="M492.3,237.5c0.6,0.1,1.2,0.3,1.6,0.7c0.4,0.5,0.5,1.1,0,1.6
		c-0.9,0.9-2.5-0.4-3.1-1.1s-0.6-1.8-0.3-2.6c0.9-2,3.2-2.3,4.6-0.6c1.1,1.4,1.7,3.9,1.1,5.6c-0.6,1.6-3,2.5-4.5,2.3
		c-1.2-0.1-2.8-0.9-3.6-1.8c-1.8-2-0.9-5.7-0.4-8c0.3-1.3,0.4-2.7,0.5-4.1c0.1-1.3,0.1-2.6-0.1-3.9"/>
	<path id="path212" inkscape:connector-curvature="0" class="st13" d="M500.9,248.6c0.7,0.2,2,0.8,1.8,1.7c-0.1,0.8-1.1,1.2-1.8,0.8
		c-0.4-0.2-0.9-0.8-1.1-1.3c-0.3-0.8-0.5-2.8,0.3-3.4c0.8-0.7,2.2-0.6,3-0.1c1.7,1.1,3.2,3.3,2.5,5.4c-0.4,1-0.9,2.1-1.8,2.7
		c-1.4,0.9-3.8,0.4-5.1-0.5c-1.4-1-2.3-2.5-2.3-4.3c0-1,0-2.1,0.1-3.1c0.2-1,0.8-1.9,1-2.8c0.3-0.9,0.2-2,0.1-3
		c-0.1-0.8-0.3-1.8-0.9-2.4c-0.2-0.2-0.3-0.3-0.5-0.5"/>
	<path id="path214" inkscape:connector-curvature="0" class="st13" d="M510.2,259.8c0.7-0.3,1.4-0.2,1.9,0.5c0.4,0.6,0.6,1.5,0,2
		c-1.3,1-2.9,0.1-3.5-1.2c-0.4-0.8-0.5-1.8-0.3-2.7c0.2-0.8,0.5-1.8,1.4-2.2c0.9-0.5,1.9,0.1,2.6,0.6c1,0.7,1.9,1.8,2.2,3
		c0.2,0.8,0.1,1.6,0,2.4c0,1.2-0.8,2.6-1.9,3.2c-1,0.6-2.7,0.7-3.8,0.3c-1.1-0.4-2.1-1.5-2.5-2.6c-0.6-1.5-0.4-3.2-0.4-4.8
		c0-1.5,0-2.9,0.2-4.4c0.1-1.2,0.4-2.5-0.3-3.6"/>
	<path id="path216" inkscape:connector-curvature="0" class="st17" d="M520.8,332.4c-2.7,14.7-12.8,56-33.4,70.2
		c-24.8,17-61.4,11.1-66.3,12.1c-4.9,1-14.3,5.9-19.5,10.3c8.7-12.9,28.8-23.5,40.7-28.1c11.9-4.6,37.7-13.4,42.3-15.5
		c4.6-2.1,25.3-13.2,27.9-36.6C514.9,321.3,522.4,324.6,520.8,332.4L520.8,332.4z"/>
	<path id="path218" inkscape:connector-curvature="0" class="st18" d="M423.3,200.1c17.8,18.7,42.6,43.3,65,50.7
		c22.5,7.5,8.1,17-3.4,10.3S429.8,215.4,423.3,200.1z"/>
	<polygon id="polygon220" class="st18" points="477.8,221.6 472.1,224.8 429.6,175.2 	"/>
	<path id="path222" inkscape:connector-curvature="0" class="st18" d="M574.7,315.8c4.9-35.3-43.5-86.9-66.7-94.2
		c-2.4,0.8,13.9,22.5,10.2,32.7c-3.5,2.3-6.7-1.7-8.7-0.5c-2.1,1.2,3.8,4,4.8,6.2s14.7,20.6,12.6,1.2c3,8.2,14.7,25.6,11.6,4.3
		c4,15.7,21.8,38.4,14,9C562.5,286.3,569.5,320,574.7,315.8z"/>
	<path id="path224" inkscape:connector-curvature="0" class="st18" d="M461.2,368c8.8-4.6,15.3-21.8,16.8-31.7
		c1.5-9.9,8-20.5,12.9-19.4c4.9,1,12.1,13.5,13.4,20.5c1.3,6.9,5.7-2.6,3.9-7.5c-1.8-5-6.5-24.5-19.4-24S472.3,338.2,472,341
		C471.8,343.7,468.4,360.3,461.2,368z"/>
	<path id="path226" inkscape:connector-curvature="0" class="st18" d="M418.9,403.6c62.4-18.7,106.4-51.6,106.3-98.4
		c0-24.5-12.9-62.6-41-82.3l-12.4-15c0,0,2.8,6,4,11.7c0,0-6.6,3.2-7.4,5.1c-0.8,1.6,5.1,5.1,2.2,4.4c-9.3-2.4,13.7,11.9,15.4,20.5
		c0.4,1.9-7.3,12-6.3,18.2s12.3,15.9,17.5,19c16.5,9.9,12.5,45.7-2.6,63.5C474.7,373.9,437.2,394.8,418.9,403.6L418.9,403.6z"/>
	<path id="path228" inkscape:connector-curvature="0" class="st18" d="M493.5,263c-15.2-8-27.2-8.2-32.3-5.4
		c-8,4.4,12,25.5,23.7,31.7c-5.3-7.1-19.8-20.6-19-25.8c0.5-3.4,16.3,1,26.3,7.5"/>
	<path id="path230" inkscape:connector-curvature="0" class="st18" d="M476.1,219.9c-4.5-2.8-29.9-13.5-32.2-13.5l2.9,9.3
		c2.1,0.9,12,8.6,14.4,12c2.5,3.4,5,8.8,15.2,4.1"/>
	<line id="line232" class="st13" x1="452.4" y1="216.7" x2="446" y2="213.2"/>
	<path id="path234" inkscape:connector-curvature="0" class="st17" d="M461.2,220l4.1,5.4l1.7,0.1c1.2-1.1,2.5-3,1.5-5.6
		C466,219.1,463.3,219.2,461.2,220L461.2,220z"/>
	<path id="path236" inkscape:connector-curvature="0" class="st16" d="M467.1,225.5l9.4,0.6c-2.1-3.4-4.9-5.4-7.9-6.3
		C469.6,222.5,468.2,224.4,467.1,225.5z"/>
	<path id="path238" inkscape:connector-curvature="0" class="st17" d="M488.2,229.6c-0.1,1.4-0.2,2.7-0.5,4.1
		c-0.5,2.3-1.4,5.9,0.4,8c0.8,0.9,2.4,1.6,3.6,1.8c1.6,0.2,4-0.7,4.5-2.3c0.3-0.9,0.3-2,0-3.1l-0.1-0.1l0.1,0.1
		c-0.2-0.9-0.6-1.8-1.2-2.5c-1.3-1.7-3.7-1.4-4.6,0.6c-0.4,0.9-0.3,1.9,0.3,2.6c0.6,0.7,2.2,2,3.1,1.1c0.5-0.4,0.3-1.1,0-1.6
		c-0.4-0.5-1-0.7-1.6-0.7c0.6,0.1,1.2,0.3,1.6,0.7c0.4,0.5,0.5,1.1,0,1.6c-0.9,0.9-2.5-0.4-3.1-1.1s-0.6-1.8-0.3-2.6
		c0.9-2,3.2-2.3,4.6-0.6c0.5,0.7,0.9,1.5,1.2,2.5c0.2,0.1,0.3,0.2,0.4,0.4c0.6,0.6,0.8,1.6,0.9,2.4c0.1,0.9,0.1,2.1-0.1,3
		c-0.3,1-0.9,1.8-1,2.8c-0.2,1-0.1,2.1-0.1,3.1c0,1.8,0.9,3.3,2.3,4.3c1.3,0.9,3.7,1.4,5.1,0.5c0.9-0.6,1.5-1.7,1.8-2.7
		c0.1-0.4,0.2-0.8,0.2-1.2c0,0,0-0.1-0.1-0.1c0,0,0,0.1,0.1,0.1c-0.1-1.7-1.3-3.3-2.7-4.1c-0.8-0.5-2.2-0.6-3,0.1
		c-0.7,0.6-0.6,2.6-0.3,3.4c0.2,0.5,0.7,1,1.1,1.3c0.7,0.4,1.7,0,1.8-0.8c0.2-0.9-1.1-1.6-1.8-1.7c0.7,0.2,2,0.8,1.8,1.7
		c-0.1,0.8-1.1,1.2-1.8,0.8c-0.4-0.2-0.9-0.8-1.1-1.3c-0.3-0.8-0.5-2.8,0.3-3.4c0.8-0.7,2.2-0.6,3-0.1c1.3,0.8,2.6,2.5,2.7,4.1
		c0.6,1.1,0.3,2.3,0.2,3.5c-0.1,1.4-0.2,2.9-0.2,4.4c0,1.6-0.2,3.3,0.4,4.8c0.4,1,1.5,2.2,2.5,2.6c1.1,0.4,2.8,0.3,3.8-0.3
		c1.1-0.6,1.8-1.9,1.9-3.2c0-0.7,0.1-1.3,0-2c-0.4-0.8-0.8-1.7-1.2-2.5c-0.3-0.3-0.7-0.7-1-0.9c-0.7-0.5-1.7-1.1-2.6-0.6
		c-0.8,0.4-1.1,1.4-1.4,2.2c-0.2,0.9-0.2,1.8,0.3,2.7c0.6,1.2,2.3,2.2,3.5,1.2c0.6-0.5,0.5-1.4,0-2c-0.5-0.7-1.1-0.7-1.9-0.5
		c0.7-0.3,1.4-0.2,1.9,0.5c0.4,0.6,0.6,1.5,0,2c-1.3,1-2.9,0.1-3.5-1.2c-0.4-0.8-0.5-1.8-0.3-2.7c0.2-0.8,0.5-1.8,1.4-2.2
		c0.9-0.5,1.9,0.1,2.6,0.6c0.4,0.3,0.7,0.6,1,0.9c-6-12-14.3-23.3-25-31.9C488.3,227.1,488.3,228.4,488.2,229.6L488.2,229.6z"/>
</g>
<path id="path256" inkscape:connector-curvature="0" class="st8" d="M505.4,21v450.5L307.1,407l-6.2-2l-6.2,2L96.4,471.5V21H505.4
	 M525.4,1h-449v498l224.5-73l224.5,73V1z"/>
<polygon id="polygon648" class="st8" points="378.4,101.3 386,95.7 393.7,101.3 390.8,92.3 398.4,86.7 389,86.7 386,77.8 
	383.1,86.7 373.7,86.7 381.3,92.3 "/>
<polygon id="polygon650" class="st8" points="465.9,265.3 456.5,265.3 453.5,256.3 450.6,265.3 441.2,265.3 448.8,270.8 
	445.9,279.8 453.5,274.2 461.2,279.8 458.3,270.8 "/>
<polygon id="polygon652" class="st8" points="128.3,181.3 131.2,172.3 123.6,166.7 133,166.7 136,157.8 138.9,166.7 148.3,166.7 
	140.7,172.3 143.6,181.3 136,175.7 "/>
<g>
	<path class="st19" d="M624.8,133.2h138.5v38.6h-98.5v43.3H752v38.6h-87.2v43.9h102.4v38.6H624.8V133.2z"/>
	<path class="st19" d="M850.2,339.6c-10.3,0-19.8-2.5-28.6-7.4c-8.7-5-15.7-12.2-21-21.7c-5.2-9.5-7.9-21-7.9-34.6
		c0-13.8,2.9-25.6,8.8-35.5c5.9-9.8,13.6-17.4,23-22.8c9.5-5.3,19.7-8,30.8-8c10.3,0,18.9,1.7,25.7,5.1c6.8,3.4,12.8,7.9,17.9,13.4
		l-3,8.3V213h38.6v181.3h-38.4v-81.4l0.6,12.4c-4.8,4-11.2,7.4-19.2,10.2C869.7,338.2,860.5,339.6,850.2,339.6z M864,309.3
		c5.1,0,9.9-0.8,14.2-2.3c4.3-1.6,8-3.8,11-6.8c3-2.9,5.3-6.3,6.8-10.2v-29.5c-2.2-4-4.8-7.4-7.9-10.1c-3-2.7-6.5-4.7-10.5-6.1
		c-4-1.4-8.5-2.1-13.7-2.1c-5.7,0-11,1.5-15.9,4.4c-4.9,2.9-8.8,7-11.7,12.1c-2.9,5.2-4.4,10.9-4.4,17.4c0,6.4,1.5,12.1,4.4,17.1
		c2.9,5,6.8,8.9,11.7,11.7C853,307.8,858.3,309.3,864,309.3z"/>
	<path class="st19" d="M1013.3,342.1c-10.9,0-20-3.4-27.3-10.1c-7.4-6.7-11.2-15.4-11.6-26.1v-90.2h38.6v75.9
		c0.4,5.3,1.7,9.6,4.1,12.8c2.4,3.2,6.4,4.8,12.1,4.8c5.7,0,10.6-1.9,14.8-5.8c4.1-3.9,7.4-9.1,9.7-15.9c2.3-6.7,3.4-14.3,3.4-22.8
		v-49.1h38.6v120.6h-35l-3-22.1l0.6,2.5c-2.8,5-6.3,9.4-10.5,13.2c-4.2,3.9-9.2,6.8-15,9C1026.9,341,1020.4,342.1,1013.3,342.1z"/>
	<path class="st19" d="M1194.8,339.6c-14.7,0-27.2-2.8-37.4-8.3c-10.2-5.5-18-13.1-23.3-22.9c-5.3-9.7-8-21-8-33.7
		c0-12.1,3.1-23.1,9.4-32.8c6.3-9.7,14.6-17.5,25.1-23.3s22.2-8.7,35-8.7c17.3,0,31.5,5,42.6,15c11.1,10,18.3,24.5,21.7,43.5
		l-93.8,29.8l-8.6-21l67.9-22.9l-8,3.6c-1.5-4.8-4.1-9-7.9-12.6c-3.8-3.6-9.4-5.4-17-5.4c-5.7,0-10.7,1.3-15,4
		c-4.3,2.7-7.6,6.4-9.9,11.3c-2.3,4.9-3.4,10.6-3.4,17.2c0,7.5,1.4,13.8,4.1,18.9c2.8,5.1,6.5,8.9,11.3,11.5
		c4.8,2.6,10.1,3.9,16,3.9c4.2,0,8.3-0.7,12.3-2.2c4-1.5,7.9-3.4,11.7-5.8l17.1,28.7c-6.4,3.7-13.4,6.6-20.8,8.8
		S1201.4,339.6,1194.8,339.6z"/>
	<path class="st19" d="M1327.2,338.8c-9.9,0-19.2-1.8-27.7-5.2c-8.6-3.5-15.8-8.4-21.7-14.6l16-21.2c5.9,5.3,11.4,9.2,16.4,11.4
		c5.1,2.3,9.6,3.4,13.7,3.4c3.1,0,5.9-0.3,8.4-1c2.5-0.6,4.5-1.7,5.9-3c1.5-1.4,2.2-3.2,2.2-5.4c0-3.1-1.2-5.6-3.7-7.4
		c-2.5-1.8-5.7-3.4-9.5-4.6c-3.9-1.2-8-2.4-12.4-3.7c-11-3.5-19-8.6-23.9-15.3c-4.9-6.7-7.3-14-7.3-21.9c0-6.1,1.6-12.2,4.8-18.3
		c3.2-6.2,8.4-11.3,15.5-15.5c7.1-4.1,16.2-6.2,27.5-6.2c10.1,0,18.7,1,25.7,3c7,2,13.6,5.3,19.9,9.9l-14.6,22.6
		c-3.5-2.8-7.4-5.1-11.7-7c-4.3-1.9-8.3-3-12-3.2c-3.3-0.2-6.1,0.2-8.4,1.1c-2.3,0.9-4.1,2.1-5.4,3.6c-1.3,1.5-1.9,3-1.9,4.7
		c-0.2,3.5,1.1,6.3,4,8.3c2.8,2,6.5,3.6,10.9,4.7s8.7,2.4,13,3.9c5.9,1.8,10.9,4.3,15.2,7.4c4.2,3.1,7.5,6.9,9.8,11.2
		c2.3,4.3,3.4,9.5,3.4,15.6c0,7.4-1.9,14.3-5.7,20.8c-3.8,6.5-9.5,11.8-17.1,15.9C1348.7,336.8,1339,338.8,1327.2,338.8z"/>
	<path class="st19" d="M1422.7,162.8h38.6v52.4h29.2v30.1h-29.2v91h-38.6v-91h-18.8v-30.1h18.8V162.8z"/>
	<path class="st19" d="M1554.9,215.7l3.6,33.1l-0.8-5c3.5-7.2,8.3-13.3,14.3-18.3c6.1-5.1,12.1-9,18.1-11.7c6-2.8,10.5-4.1,13.7-4.1
		l-1.9,38.6c-9-1.1-16.7,0.4-23.2,4.4c-6.4,4-11.4,9.4-14.9,16c-3.5,6.6-5.2,13.4-5.2,20.4v47.2h-38.3V215.7H1554.9z"/>
	<path class="st19" d="M1632.4,173c0-5.7,2.2-10.4,6.8-14.1c4.5-3.7,9.3-5.5,14.5-5.5c5.1,0,9.9,1.8,14.2,5.5
		c4.3,3.7,6.5,8.4,6.5,14.1c0,5.7-2.2,10.3-6.5,13.9c-4.3,3.6-9.1,5.4-14.2,5.4c-5.2,0-10-1.8-14.5-5.4
		C1634.6,183.3,1632.4,178.7,1632.4,173z M1633.2,215.7h38.6v120.6h-38.6V215.7z"/>
	<path class="st19" d="M1762.3,339.6c-11.2,0-21.4-2.3-30.5-6.8c-9.1-4.5-16.3-11.4-21.7-20.8c-5.3-9.4-8-21.3-8-35.9
		c0-13.6,2.8-25.4,8.3-35.3c5.5-9.9,12.8-17.6,21.8-23c9-5.4,18.6-8.1,28.7-8.1c12,0,21,2,27.2,5.9c6.2,4,11.3,8.3,15.3,13.1
		l-1.7,4.7l3.6-17.7h35.9v120.6h-38.6v-26.2l3,8.3c-0.4,0-1.5,1.1-3.3,3.2c-1.8,2.1-4.6,4.6-8.1,7.4c-3.6,2.9-8,5.3-13.2,7.4
		S1769.5,339.6,1762.3,339.6z M1773.4,308.2c4.6,0,8.7-0.7,12.4-2.1c3.7-1.4,6.9-3.4,9.7-6.1c2.8-2.7,5.1-6,7.2-10.1v-29.5
		c-1.5-4-3.7-7.5-6.6-10.3c-2.9-2.8-6.4-5.1-10.5-6.6c-4-1.6-8.6-2.3-13.5-2.3c-5.5,0-10.6,1.4-15.3,4.3c-4.7,2.9-8.4,6.8-11.2,11.7
		c-2.8,5-4.1,10.7-4.1,17.1c0,6.4,1.5,12.2,4.4,17.4c2.9,5.2,6.8,9.2,11.7,12.1C1762.4,306.7,1767.7,308.2,1773.4,308.2z"/>
</g>
<linearGradient id="SVGID_1_" gradientUnits="userSpaceOnUse" x1="2062.6323" y1="449.9906" x2="2062.6323" y2="286.1863">
	<stop  offset="0" style="stop-color:#DB8BF3"/>
	<stop  offset="1" style="stop-color:#915CA0"/>
</linearGradient>
<path class="st20" d="M1844.9,450c-6.3,0-11.4-1.8-15.2-5.5c-3.8-3.7-5.6-8.7-5.6-15.1c0-6.3,1.9-11.4,5.6-15.2
	c3.8-3.8,8.8-5.6,15.2-5.6c6.3,0,11.4,1.9,15.2,5.6c3.8,3.8,5.6,8.8,5.6,15.2c0,6.3-1.9,11.4-5.6,15.1
	C1856.3,448.1,1851.3,450,1844.9,450z M1967.3,450c-12.1,0-21.9-4.2-29.3-12.6c-7.5-8.4-11.2-19.7-11.2-33.9v-33
	c0-14.3,3.7-25.7,11.1-34.1c7.4-8.4,17.2-12.6,29.4-12.6c10,0,18,2.8,23.9,8.5c5.9,5.7,8.9,13.5,8.9,23.4l-6.2-6.4h6.4l-0.9-29
	v-34.1h27.7v161.6h-27v-23.2h-6.2l6.2-6.4c0,9.9-3,17.7-8.9,23.4C1985.3,447.1,1977.4,450,1967.3,450z M1977.1,426.1
	c7.1,0,12.6-2.1,16.5-6.3c3.9-4.2,5.9-10.1,5.9-17.6v-30.5c0-7.5-2-13.4-5.9-17.6c-3.9-4.2-9.4-6.3-16.5-6.3s-12.6,2.1-16.6,6.2
	c-4,4.1-6,10-6,17.7v30.5c0,7.7,2,13.6,6,17.7C1964.5,424,1970,426.1,1977.1,426.1z M2110.8,450c-10.3,0-19.3-2-27-6
	c-7.7-4-13.6-9.6-17.8-16.7c-4.2-7.2-6.3-15.5-6.3-25.1v-30.5c0-9.6,2.1-18,6.3-25.1c4.2-7.2,10.1-12.7,17.8-16.7c7.7-4,16.7-6,27-6
	c10.2,0,19.1,2,26.7,6c7.6,4,13.5,9.6,17.7,16.7c4.2,7.2,6.3,15.5,6.3,25.1v21.9h-75v8.6c0,8.6,2.1,15,6.2,19.4
	c4.1,4.4,10.3,6.5,18.4,6.5c6.2,0,11.2-1.1,15.1-3.2c3.8-2.1,6.3-5.3,7.3-9.4h27.2c-2.1,10.5-7.6,18.9-16.7,25.1
	C2134.8,446.9,2123.8,450,2110.8,450z M2134.7,378v-6.6c0-8.4-2-14.9-6-19.4c-4-4.5-10-6.8-17.9-6.8c-8,0-14,2.3-18.1,6.9
	c-4.1,4.6-6.2,11.1-6.2,19.5v4.6l50.2-0.4L2134.7,378z M2225.7,447.8L2185.6,326h28.3l23.2,73.9c1.3,4.4,2.6,9,3.9,13.7
	c1.3,4.7,2.2,8.5,2.8,11.3c0.7-2.8,1.7-6.6,2.9-11.3c1.2-4.7,2.4-9.2,3.5-13.5L2273,326h28.1l-39.8,121.7H2225.7z"/>
</svg>
