<?xml version="1.0" encoding="utf-8"?>
<!-- Generator: Adobe Illustrator 26.2.1, SVG Export Plug-In . SVG Version: 6.00 Build 0)  -->
<svg version="1.1"
	 id="svg241" inkscape:version="0.92.2 (5c3e80d, 2017-08-06)" sodipodi:docname="Equestrian Flag QTMarx SVG.svg" xmlns:cc="http://creativecommons.org/ns#" xmlns:dc="http://purl.org/dc/elements/1.1/" xmlns:inkscape="http://www.inkscape.org/namespaces/inkscape" xmlns:rdf="http://www.w3.org/1999/02/22-rdf-syntax-ns#" xmlns:sodipodi="http://sodipodi.sourceforge.net/DTD/sodipodi-0.dtd" xmlns:svg="http://www.w3.org/2000/svg"
	 xmlns="http://www.w3.org/2000/svg" xmlns:xlink="http://www.w3.org/1999/xlink" x="0px" y="0px" viewBox="0 0 500 500"
	 style="enable-background:new 0 0 500 500;" xml:space="preserve">
<style type="text/css">
	.st0{display:none;}
	.st1{display:inline;fill:none;stroke:#000000;stroke-width:0.75;stroke-miterlimit:10;}
	.st2{display:inline;fill:#8433E5;stroke:#000000;stroke-width:0.75;stroke-miterlimit:10;}
	.st3{display:inline;fill:#2D7FDC;stroke:#000000;stroke-width:0.75;stroke-miterlimit:10;}
	.st4{display:inline;fill:#FFFAFF;stroke:#000000;stroke-width:0.75;stroke-miterlimit:10;}
	.st5{display:inline;fill:#68C0B1;stroke:#000000;stroke-width:0.75;stroke-miterlimit:10;}
	.st6{display:inline;fill:#F4FAFB;stroke:#000000;stroke-width:0.75;stroke-miterlimit:10;}
	.st7{fill:#88D5F4;}
	.st8{fill:#FFFFFF;}
	.st9{fill:#FDFDFD;}
	.st10{fill:#B27AEF;}
	.st11{fill:#FFB92D;}
	.st12{fill:#F9FA8F;}
	.st13{fill:none;stroke:#000000;stroke-width:0.6851;stroke-miterlimit:10;}
	.st14{fill:#8433E5;stroke:#000000;stroke-width:0.6851;stroke-miterlimit:10;}
	.st15{fill:#2D7FDC;stroke:#000000;stroke-width:0.6851;stroke-miterlimit:10;}
	.st16{fill:#FFFAFF;stroke:#000000;stroke-width:0.6851;stroke-miterlimit:10;}
	.st17{fill:#68C0B1;stroke:#000000;stroke-width:0.6851;stroke-miterlimit:10;}
	.st18{fill:#F4FAFB;stroke:#000000;stroke-width:0.6851;stroke-miterlimit:10;}
	.st19{fill:url(#SVGID_1_);}
</style>
<sodipodi:namedview  bordercolor="#666666" borderopacity="1" gridtolerance="10" guidetolerance="10" id="namedview243" inkscape:current-layer="svg241" inkscape:cx="-413.24164" inkscape:cy="369.67422" inkscape:pageopacity="0" inkscape:pageshadow="2" inkscape:window-height="986" inkscape:window-maximized="1" inkscape:window-width="1920" inkscape:window-x="-11" inkscape:window-y="-11" inkscape:zoom="0.2979798" objecttolerance="10" pagecolor="#ffffff" showgrid="false">
	</sodipodi:namedview>
<g id="Layer_1" transform="translate(0,-294)" class="st0">
</g>
<g id="Luna" transform="translate(0,-294)" class="st0">
	<path id="path118" inkscape:connector-curvature="0" class="st1" d="M265.8,395.5c-0.7-0.1-1.3-0.3-1.7-0.8s-0.5-1.2,0-1.7
		c1-0.9,2.8,0.4,3.4,1.2c0.7,0.8,0.7,1.9,0.3,2.9c-0.9,2.1-3.6,2.5-5,0.7c-1.2-1.6-1.9-4.2-1.2-6.1c0.6-1.8,3.3-2.7,5-2.5
		c1.3,0.1,3,0.9,3.9,1.9c1.9,2.2,1,6.2,0.4,8.7c-0.3,1.5-0.4,3-0.5,4.4s-0.1,2.9,0.1,4.3"/>
	<path id="path120" inkscape:connector-curvature="0" class="st1" d="M256.3,383.4c-0.8-0.2-2.2-0.9-2-1.9c0.2-0.9,1.2-1.3,2-0.9
		c0.5,0.3,1,0.9,1.3,1.4c0.4,0.8,0.5,3-0.3,3.7c-0.9,0.7-2.4,0.7-3.3,0.1c-1.8-1.2-3.5-3.6-2.7-5.9c0.4-1.1,1-2.3,2-3
		c1.5-1,4.1-0.4,5.6,0.6c1.6,1.1,2.5,2.8,2.5,4.7c0,1.1,0.1,2.3-0.1,3.4c-0.2,1.1-0.8,2-1.1,3.1c-0.3,1-0.2,2.2-0.2,3.3
		c0.1,0.9,0.3,2,1,2.6c0.2,0.2,0.4,0.3,0.6,0.5"/>
	<path id="path122" inkscape:connector-curvature="0" class="st1" d="M246.2,371.2c-0.8,0.3-1.5,0.2-2-0.5s-0.6-1.6,0-2.2
		c1.4-1.1,3.2-0.1,3.9,1.3c0.5,0.9,0.5,1.9,0.3,2.9c-0.2,0.9-0.6,1.9-1.5,2.4c-1,0.5-2-0.1-2.8-0.7c-1.1-0.8-2.1-1.9-2.4-3.3
		c-0.2-0.9-0.1-1.7,0-2.6c0-1.4,0.8-2.8,2-3.5c1.1-0.6,3-0.8,4.2-0.3c1.2,0.4,2.3,1.7,2.8,2.8c0.7,1.7,0.5,3.5,0.5,5.2
		c0,1.6,0,3.2-0.2,4.8c-0.1,1.3-0.5,2.7,0.3,3.9"/>
	<path id="path124" inkscape:connector-curvature="0" class="st2" d="M234.6,291.7c3-16.1,14-61.3,36.6-76.8
		c27.1-18.6,67.2-12.1,72.6-13.3c5.4-1.1,15.7-6.5,21.4-11.3c-9.5,14.1-31.6,25.7-44.6,30.8s-41.2,14.7-46.3,17
		s-27.7,14.4-30.5,40.1C240.9,303.9,232.8,300.3,234.6,291.7z"/>
	<path id="path126" inkscape:connector-curvature="0" class="st3" d="M341.2,436.5C321.7,416,294.6,389.1,270,381
		c-24.6-8.2-8.9-18.6,3.7-11.3C286.4,377,334.1,419.8,341.2,436.5z"/>
	<polygon id="polygon128" class="st3" points="281.6,413 287.8,409.5 334.3,463.8 	"/>
	<path id="path130" inkscape:connector-curvature="0" class="st3" d="M175.5,309.9c-5.3,38.6,47.7,95.1,73,103.1
		c2.7-0.9-15.2-24.7-11.2-35.9c3.8-2.5,7.3,1.8,9.6,0.5s-4.2-4.4-5.3-6.8s-16.1-22.5-13.8-1.4c-3.3-9-16-28-12.7-4.7
		c-4.3-17.2-23.8-42-15.3-9.8C188.9,342.2,181.2,305.2,175.5,309.9L175.5,309.9z"/>
	<path id="path132" inkscape:connector-curvature="0" class="st3" d="M299.7,252.7c-9.6,5.1-16.7,23.9-18.4,34.7
		c-1.7,10.8-8.8,22.4-14.1,21.3c-5.4-1.1-13.3-14.8-14.7-22.4s-6.2,2.8-4.2,8.3s7.1,26.8,21.2,26.3c14.1-0.6,18.1-35.3,18.4-38.4
		C288.1,279.3,291.9,261.2,299.7,252.7L299.7,252.7z"/>
	<path id="path134" inkscape:connector-curvature="0" class="st3" d="M346.1,213.7c-68.3,20.4-116.4,56.5-116.4,107.7
		c0,26.9,14.1,68.6,44.9,90l13.6,16.4c0,0-3-6.6-4.4-12.8c0,0,7.2-3.6,8.2-5.6c0.8-1.8-5.6-5.6-2.4-4.8c10.1,2.6-15-13-16.9-22.4
		c-0.4-2.1,8-13.2,6.9-20s-13.4-17.4-19.1-20.8c-18.1-10.8-13.7-50,2.8-69.5C285,246.3,326,223.3,346.1,213.7L346.1,213.7z"/>
	<path id="path136" inkscape:connector-curvature="0" class="st3" d="M264.4,367.7c16.7,8.8,29.8,9,35.4,5.9
		c8.7-4.8-13.2-28-26-34.7c5.8,7.7,21.7,22.6,20.8,28.3c-0.6,3.7-17.8-1.1-28.8-8.2"/>
	<path id="path138" inkscape:connector-curvature="0" class="st3" d="M283.5,414.9c4.9,3.1,32.8,14.8,35.3,14.8l-3.2-10.2
		c-2.3-1-13.1-9.4-15.8-13.1s-5.5-9.6-16.7-4.5"/>
	<line id="line140" class="st1" x1="309.4" y1="418.3" x2="316.4" y2="422.2"/>
	<path id="path142" inkscape:connector-curvature="0" class="st2" d="M299.7,414.8l-4.5-5.9l-1.9-0.1c-1.3,1.2-2.7,3.3-1.7,6.2
		C294.5,415.7,297.5,415.6,299.7,414.8z"/>
	<path id="path144" inkscape:connector-curvature="0" class="st4" d="M293.3,408.7L283,408c2.3,3.8,5.4,5.9,8.6,6.9
		C290.6,412,292.1,409.9,293.3,408.7L293.3,408.7z"/>
	<path id="path146" inkscape:connector-curvature="0" class="st2" d="M270.2,404.2c0.1-1.5,0.2-3,0.5-4.4c0.6-2.5,1.6-6.5-0.4-8.7
		c-0.9-1-2.6-1.8-3.9-1.9c-1.7-0.2-4.4,0.8-5,2.5c-0.4,1-0.3,2.2,0,3.4l0.1,0.1l-0.1-0.1c0.3,1,0.7,2,1.3,2.7c1.4,1.8,4,1.5,5-0.7
		c0.4-0.9,0.4-2-0.3-2.9c-0.6-0.8-2.4-2.2-3.4-1.2c-0.5,0.5-0.4,1.2,0,1.7s1.1,0.7,1.7,0.8c-0.7-0.1-1.3-0.3-1.7-0.8s-0.5-1.2,0-1.7
		c1-0.9,2.8,0.4,3.4,1.2c0.7,0.8,0.7,1.9,0.3,2.9c-0.9,2.1-3.6,2.5-5,0.7c-0.6-0.7-1-1.7-1.3-2.7c-0.2-0.1-0.3-0.3-0.5-0.4
		c-0.7-0.7-0.9-1.7-1-2.6c-0.1-1-0.1-2.3,0.2-3.3c0.3-1.1,0.9-2,1.1-3.1c0.2-1.1,0.1-2.3,0.1-3.4c0-1.9-1-3.6-2.5-4.7
		c-1.4-1-4-1.6-5.6-0.6c-1,0.7-1.6,1.9-2,3c-0.2,0.4-0.2,0.9-0.2,1.4c0,0,0,0.1,0.1,0.1c0,0,0-0.1-0.1-0.1c0.1,1.8,1.5,3.6,2.9,4.5
		c0.9,0.6,2.4,0.6,3.3-0.1c0.8-0.7,0.6-2.9,0.3-3.7c-0.2-0.5-0.8-1.1-1.3-1.4c-0.8-0.4-1.8,0-2,0.9c-0.2,1,1.2,1.7,2,1.9
		c-0.8-0.2-2.2-0.9-2-1.9c0.2-0.9,1.2-1.3,2-0.9c0.5,0.3,1,0.9,1.3,1.4c0.4,0.8,0.5,3-0.3,3.7c-0.9,0.7-2.4,0.7-3.3,0.1
		c-1.5-0.9-2.8-2.7-2.9-4.5c-0.7-1.2-0.4-2.5-0.2-3.8c0.2-1.6,0.2-3.2,0.2-4.8c0-1.8,0.2-3.6-0.5-5.2c-0.5-1.1-1.6-2.4-2.8-2.8
		c-1.2-0.5-3.1-0.3-4.2,0.3c-1.2,0.7-2,2.1-2,3.5c0,0.7-0.1,1.5,0,2.2c0.4,0.9,0.9,1.8,1.3,2.7c0.3,0.4,0.7,0.7,1.1,1
		c0.8,0.6,1.9,1.2,2.8,0.7c0.9-0.5,1.3-1.5,1.5-2.4c0.3-1,0.2-2-0.3-2.9c-0.7-1.4-2.5-2.5-3.9-1.3c-0.7,0.6-0.5,1.6,0,2.2
		c0.5,0.8,1.2,0.8,2,0.5c-0.8,0.3-1.5,0.2-2-0.5s-0.6-1.6,0-2.2c1.4-1.1,3.2-0.1,3.9,1.3c0.5,0.9,0.5,1.9,0.3,2.9
		c-0.2,0.9-0.6,1.9-1.5,2.4c-1,0.5-2-0.1-2.8-0.7c-0.4-0.3-0.8-0.6-1.1-1c6.6,13.1,15.6,25.5,27.4,34.9
		C270.1,406.9,270.1,405.6,270.2,404.2L270.2,404.2z"/>
</g>
<g id="Celestia" transform="translate(0,-294)" class="st0">
	<path id="path149" inkscape:connector-curvature="0" class="st1" d="M473.6,258.5c0.7,0.1,1.3,0.3,1.7,0.8c0.4,0.5,0.5,1.2,0,1.7
		c-1,0.9-2.8-0.4-3.4-1.2c-0.7-0.8-0.7-1.9-0.3-2.9c0.9-2.1,3.6-2.5,5-0.7c1.2,1.6,1.9,4.2,1.2,6.1c-0.6,1.8-3.3,2.7-5,2.5
		c-1.3-0.1-3-0.9-3.9-1.9c-1.9-2.2-1-6.2-0.4-8.7c0.3-1.5,0.4-3,0.5-4.4s0.1-2.9-0.1-4.3"/>
	<path id="path151" inkscape:connector-curvature="0" class="st1" d="M483.1,270.6c0.8,0.2,2.2,0.9,2,1.9c-0.2,0.9-1.2,1.3-2,0.9
		c-0.5-0.3-1-0.9-1.3-1.4c-0.4-0.8-0.5-3,0.3-3.7c0.9-0.7,2.4-0.7,3.3-0.1c1.8,1.2,3.5,3.6,2.7,5.9c-0.4,1.1-1,2.3-2,3
		c-1.5,1-4.1,0.4-5.6-0.6c-1.6-1.1-2.5-2.8-2.5-4.7c0-1.1-0.1-2.3,0.1-3.4s0.8-2,1.1-3.1c0.3-1,0.2-2.2,0.2-3.3
		c-0.1-0.9-0.3-2-1-2.6c-0.2-0.2-0.4-0.3-0.6-0.5"/>
	<path id="path153" inkscape:connector-curvature="0" class="st1" d="M493.2,282.9c0.8-0.3,1.5-0.2,2,0.5s0.6,1.6,0,2.2
		c-1.4,1.1-3.2,0.1-3.9-1.3c-0.5-0.9-0.5-1.9-0.3-2.9c0.2-0.9,0.6-1.9,1.5-2.4c1-0.5,2,0.1,2.8,0.7c1.1,0.8,2.1,1.9,2.4,3.3
		c0.2,0.9,0.1,1.7,0,2.6c0,1.4-0.8,2.8-2,3.5c-1.1,0.6-3,0.8-4.2,0.3c-1.2-0.4-2.3-1.7-2.8-2.8c-0.7-1.7-0.5-3.5-0.5-5.2
		c0-1.6,0-3.2,0.2-4.8c0.1-1.3,0.5-2.7-0.3-3.9"/>
	<path id="path155" inkscape:connector-curvature="0" class="st5" d="M504.8,362.3c-3,16.1-14,61.3-36.6,76.8
		c-27.1,18.6-67.2,12.1-72.6,13.3c-5.4,1.1-15.7,6.5-21.4,11.3c9.5-14.1,31.6-25.7,44.6-30.8c13-5.1,41.2-14.7,46.3-17
		c5.1-2.3,27.7-14.4,30.5-40.1C498.5,350.2,506.6,353.8,504.8,362.3L504.8,362.3z"/>
	<path id="path157" inkscape:connector-curvature="0" class="st6" d="M398.2,217.5c19.5,20.5,46.6,47.4,71.2,55.5
		c24.6,8.2,8.9,18.6-3.7,11.3C453,277,405.3,234.3,398.2,217.5L398.2,217.5z"/>
	<polygon id="polygon159" class="st6" points="457.8,241 451.6,244.5 405.1,190.3 	"/>
	<path id="path161" inkscape:connector-curvature="0" class="st6" d="M563.9,344.2c5.3-38.6-47.7-95.1-73-103.2
		c-2.7,0.9,15.2,24.7,11.2,35.9c-3.8,2.5-7.3-1.8-9.6-0.5c-2.3,1.3,4.2,4.4,5.3,6.8c1.1,2.4,16.1,22.5,13.8,1.4
		c3.3,9,16,28,12.7,4.7c4.3,17.2,23.8,42,15.3,9.8C550.5,311.9,558.2,348.8,563.9,344.2L563.9,344.2z"/>
	<path id="path163" inkscape:connector-curvature="0" class="st6" d="M439.7,401.3c9.6-5.1,16.7-23.9,18.4-34.7
		c1.7-10.8,8.8-22.4,14.1-21.3c5.4,1.1,13.3,14.8,14.7,22.4c1.4,7.6,6.2-2.8,4.2-8.3s-7.1-26.8-21.2-26.3
		c-14.1,0.6-18.1,35.3-18.4,38.4C451.3,374.8,447.5,392.9,439.7,401.3L439.7,401.3z"/>
	<path id="path165" inkscape:connector-curvature="0" class="st6" d="M393.3,440.3c68.3-20.4,116.4-56.5,116.4-107.7
		c0-26.9-14.1-68.6-44.9-90l-13.6-16.4c0,0,3,6.6,4.4,12.8c0,0-7.2,3.6-8.2,5.6c-0.8,1.8,5.6,5.6,2.4,4.8c-10.1-2.6,15,13,16.9,22.4
		c0.4,2.1-8,13.2-6.9,20s13.4,17.4,19.1,20.8c18.1,10.8,13.7,50-2.8,69.5C454.4,407.8,413.4,430.7,393.3,440.3L393.3,440.3z"/>
	<path id="path167" inkscape:connector-curvature="0" class="st6" d="M475,286.3c-16.7-8.8-29.8-9-35.4-5.9
		c-8.7,4.8,13.2,28,26,34.7c-5.8-7.7-21.7-22.6-20.8-28.3c0.6-3.7,17.8,1.1,28.8,8.2"/>
	<path id="path169" inkscape:connector-curvature="0" class="st6" d="M456,239.2c-4.9-3.1-32.8-14.8-35.3-14.8l3.2,10.2
		c2.3,1,13.1,9.4,15.8,13.1c2.7,3.7,5.5,9.6,16.7,4.5"/>
	<line id="line171" class="st1" x1="430" y1="235.7" x2="423" y2="231.8"/>
	<path id="path173" inkscape:connector-curvature="0" class="st5" d="M439.7,239.3l4.5,5.9l1.9,0.1c1.3-1.2,2.7-3.3,1.7-6.2
		C444.9,238.3,441.9,238.4,439.7,239.3z"/>
	<path id="path175" inkscape:connector-curvature="0" class="st4" d="M446.1,245.3l10.3,0.7c-2.3-3.8-5.4-5.9-8.6-6.9
		C448.8,242.1,447.3,244.2,446.1,245.3L446.1,245.3z"/>
	<path id="path177" inkscape:connector-curvature="0" class="st5" d="M469.2,249.8c-0.1,1.5-0.2,3-0.5,4.4c-0.6,2.5-1.6,6.5,0.4,8.7
		c0.9,1,2.6,1.8,3.9,1.9c1.7,0.2,4.4-0.8,5-2.5c0.4-1,0.3-2.2,0-3.4l-0.1-0.1l0.1,0.1c-0.3-1-0.7-2-1.3-2.7c-1.4-1.8-4-1.5-5,0.7
		c-0.4,0.9-0.4,2,0.3,2.9c0.6,0.8,2.4,2.2,3.4,1.2c0.5-0.5,0.4-1.2,0-1.7s-1.1-0.7-1.7-0.8c0.7,0.1,1.3,0.3,1.7,0.8
		c0.4,0.5,0.5,1.2,0,1.7c-1,0.9-2.8-0.4-3.4-1.2c-0.7-0.8-0.7-1.9-0.3-2.9c0.9-2.1,3.6-2.5,5-0.7c0.6,0.7,1,1.7,1.3,2.7
		c0.2,0.1,0.3,0.3,0.5,0.4c0.7,0.7,0.9,1.7,1,2.6c0.1,1,0.1,2.3-0.2,3.3c-0.3,1.1-0.9,2-1.1,3.1s-0.1,2.3-0.1,3.4
		c0,1.9,1,3.6,2.5,4.7c1.4,1,4,1.6,5.6,0.6c1-0.7,1.6-1.9,2-3c0.2-0.4,0.2-0.9,0.2-1.4c0,0,0-0.1-0.1-0.1c0,0,0,0.1,0.1,0.1
		c-0.1-1.8-1.5-3.6-2.9-4.5c-0.9-0.6-2.4-0.6-3.3,0.1c-0.8,0.7-0.6,2.9-0.3,3.7c0.2,0.5,0.8,1.1,1.3,1.4c0.8,0.4,1.8,0,2-0.9
		c0.2-1-1.2-1.7-2-1.9c0.8,0.2,2.2,0.9,2,1.9c-0.2,0.9-1.2,1.3-2,0.9c-0.5-0.3-1-0.9-1.3-1.4c-0.4-0.8-0.5-3,0.3-3.7
		c0.9-0.7,2.4-0.7,3.3-0.1c1.5,0.9,2.8,2.7,2.9,4.5c0.7,1.2,0.4,2.5,0.2,3.8c-0.2,1.6-0.2,3.2-0.2,4.8c0,1.8-0.2,3.6,0.5,5.2
		c0.5,1.1,1.6,2.4,2.8,2.8c1.2,0.5,3.1,0.3,4.2-0.3c1.2-0.7,2-2.1,2-3.5c0-0.7,0.1-1.5,0-2.2c-0.4-0.9-0.9-1.8-1.3-2.7
		c-0.3-0.4-0.7-0.7-1.1-1c-0.8-0.6-1.9-1.2-2.8-0.7s-1.3,1.5-1.5,2.4c-0.3,1-0.2,2,0.3,2.9c0.7,1.4,2.5,2.5,3.9,1.3
		c0.7-0.6,0.5-1.6,0-2.2c-0.5-0.8-1.2-0.8-2-0.5c0.8-0.3,1.5-0.2,2,0.5s0.6,1.6,0,2.2c-1.4,1.1-3.2,0.1-3.9-1.3
		c-0.5-0.9-0.5-1.9-0.3-2.9c0.2-0.9,0.6-1.9,1.5-2.4c1-0.5,2,0.1,2.8,0.7c0.4,0.3,0.8,0.6,1.1,1c-6.6-13.1-15.6-25.5-27.4-34.9
		C469.3,247.1,469.3,248.5,469.2,249.8L469.2,249.8z"/>
</g>
<polygon id="polygon5" class="st7" points="25.8,499 25.8,1 474.8,1 474.8,499 250.3,426 "/>
<path id="path10" inkscape:connector-curvature="0" class="st8" d="M454.8,21v450.5L256.5,407l-6.2-2l-6.2,2L45.8,471.5V21H454.8
	 M474.8,1h-449v498l224.5-73l224.5,73V1z"/>
<polygon id="polygon15" class="st8" points="86.5,46.7 78.9,52.3 81.8,61.3 74.2,55.7 66.5,61.3 69.4,52.3 61.8,46.7 71.2,46.7 
	74.2,37.8 77.1,46.7 "/>
<polygon id="polygon17" class="st8" points="131.5,46.7 123.9,52.3 126.8,61.3 119.2,55.7 111.5,61.3 114.4,52.3 106.8,46.7 
	116.2,46.7 119.2,37.8 122.1,46.7 "/>
<polygon id="polygon19" class="st8" points="86.5,86.7 78.9,92.3 81.8,101.3 74.2,95.7 66.5,101.3 69.4,92.3 61.8,86.7 71.2,86.7 
	74.2,77.8 77.1,86.7 "/>
<polygon id="polygon21" class="st8" points="131.5,86.7 123.9,92.3 126.8,101.3 119.2,95.7 111.5,101.3 114.4,92.3 106.8,86.7 
	116.2,86.7 119.2,77.8 122.1,86.7 "/>
<polygon id="polygon23" class="st8" points="86.5,126.7 78.9,132.3 81.8,141.3 74.2,135.7 66.5,141.3 69.4,132.3 61.8,126.7 
	71.2,126.7 74.2,117.8 77.1,126.7 "/>
<polygon id="polygon25" class="st8" points="131.5,126.7 123.9,132.3 126.8,141.3 119.2,135.7 111.5,141.3 114.4,132.3 106.8,126.7 
	116.2,126.7 119.2,117.8 122.1,126.7 "/>
<polygon id="polygon29" class="st8" points="176.5,46.7 168.9,52.3 171.8,61.3 164.2,55.7 156.5,61.3 159.4,52.3 151.8,46.7 
	161.2,46.7 164.2,37.8 167.1,46.7 "/>
<polygon id="polygon31" class="st8" points="221.5,46.7 213.9,52.3 216.8,61.3 209.2,55.7 201.5,61.3 204.4,52.3 196.8,46.7 
	206.2,46.7 209.2,37.8 212.1,46.7 "/>
<polygon id="polygon33" class="st8" points="86.5,305.2 78.9,310.8 81.8,319.8 74.2,314.2 66.5,319.8 69.4,310.8 61.8,305.2 
	71.2,305.2 74.2,296.3 77.1,305.2 "/>
<polygon id="polygon35" class="st8" points="131.5,328.8 123.9,334.3 126.8,343.3 119.2,337.7 111.5,343.3 114.4,334.3 106.8,328.8 
	116.2,328.8 119.2,319.8 122.1,328.8 "/>
<polygon id="polygon37" class="st8" points="86.5,345.2 78.9,350.8 81.8,359.8 74.2,354.2 66.5,359.8 69.4,350.8 61.8,345.2 
	71.2,345.2 74.2,336.3 77.1,345.2 "/>
<polygon id="polygon39" class="st8" points="131.5,368.8 123.9,374.3 126.8,383.3 119.2,377.7 111.5,383.3 114.4,374.3 106.8,368.8 
	116.2,368.8 119.2,359.8 122.1,368.8 "/>
<polygon id="polygon41" class="st8" points="86.5,385.2 78.9,390.8 81.8,399.8 74.2,394.2 66.5,399.8 69.4,390.8 61.8,385.2 
	71.2,385.2 74.2,376.3 77.1,385.2 "/>
<polygon id="polygon43" class="st8" points="176.5,345.2 168.9,350.8 171.8,359.8 164.2,354.2 156.5,359.8 159.4,350.8 151.8,345.2 
	161.2,345.2 164.2,336.3 167.1,345.2 "/>
<polygon id="polygon45" class="st8" points="176.5,385.2 168.9,390.8 171.8,399.8 164.2,394.2 156.5,399.8 159.4,390.8 151.8,385.2 
	161.2,385.2 164.2,376.3 167.1,385.2 "/>
<polygon id="polygon47" class="st8" points="131.5,408.8 123.9,414.3 126.8,423.3 119.2,417.7 111.5,423.3 114.4,414.3 106.8,408.8 
	116.2,408.8 119.2,399.8 122.1,408.8 "/>
<polygon id="polygon49" class="st8" points="86.5,425.2 78.9,430.8 81.8,439.8 74.2,434.2 66.5,439.8 69.4,430.8 61.8,425.2 
	71.2,425.2 74.2,416.3 77.1,425.2 "/>
<polygon id="polygon51" class="st8" points="221.5,368.8 213.9,374.3 216.8,383.3 209.2,377.7 201.5,383.3 204.4,374.3 196.8,368.8 
	206.2,368.8 209.2,359.8 212.1,368.8 "/>
<polygon id="polygon53" class="st8" points="413.1,46.7 420.7,52.3 417.8,61.3 425.4,55.7 433.1,61.3 430.2,52.3 437.8,46.7 
	428.4,46.7 425.4,37.8 422.5,46.7 "/>
<polygon id="polygon55" class="st8" points="368.1,46.7 375.7,52.3 372.8,61.3 380.4,55.7 388.1,61.3 385.2,52.3 392.8,46.7 
	383.4,46.7 380.4,37.8 377.5,46.7 "/>
<polygon id="polygon57" class="st8" points="413.1,86.7 420.7,92.3 417.8,101.3 425.4,95.7 433.1,101.3 430.2,92.3 437.8,86.7 
	428.4,86.7 425.4,77.8 422.5,86.7 "/>
<polygon id="polygon59" class="st8" points="368.1,86.7 375.7,92.3 372.8,101.3 380.4,95.7 388.1,101.3 385.2,92.3 392.8,86.7 
	383.4,86.7 380.4,77.8 377.5,86.7 "/>
<polygon id="polygon61" class="st8" points="413.1,126.7 420.7,132.3 417.8,141.3 425.4,135.7 433.1,141.3 430.2,132.3 437.8,126.7 
	428.4,126.7 425.4,117.8 422.5,126.7 "/>
<polygon id="polygon63" class="st8" points="368.1,126.7 375.7,132.3 372.8,141.3 380.4,135.7 388.1,141.3 385.2,132.3 392.8,126.7 
	383.4,126.7 380.4,117.8 377.5,126.7 "/>
<polygon id="polygon65" class="st8" points="413.1,166.7 420.7,172.3 417.8,181.3 425.4,175.7 433.1,181.3 430.2,172.3 437.8,166.7 
	428.4,166.7 425.4,157.8 422.5,166.7 "/>
<polygon id="polygon67" class="st8" points="323.1,46.7 330.7,52.3 327.8,61.3 335.4,55.7 343.1,61.3 340.2,52.3 347.8,46.7 
	338.4,46.7 335.4,37.8 332.5,46.7 "/>
<polygon id="polygon69" class="st8" points="278.1,46.7 285.7,52.3 282.8,61.3 290.4,55.7 298.1,61.3 295.2,52.3 302.8,46.7 
	293.4,46.7 290.4,37.8 287.5,46.7 "/>
<polygon id="polygon71" class="st8" points="413.1,305.2 420.7,310.8 417.8,319.8 425.4,314.2 433.1,319.8 430.2,310.8 437.8,305.2 
	428.4,305.2 425.4,296.3 422.5,305.2 "/>
<polygon id="polygon73" class="st8" points="368.1,328.8 375.7,334.3 372.8,343.3 380.4,337.7 388.1,343.3 385.2,334.3 392.8,328.8 
	383.4,328.8 380.4,319.8 377.5,328.8 "/>
<polygon id="polygon75" class="st8" points="413.1,345.2 420.7,350.8 417.8,359.8 425.4,354.2 433.1,359.8 430.2,350.8 437.8,345.2 
	428.4,345.2 425.4,336.3 422.5,345.2 "/>
<polygon id="polygon77" class="st8" points="368.1,368.8 375.7,374.3 372.8,383.3 380.4,377.7 388.1,383.3 385.2,374.3 392.8,368.8 
	383.4,368.8 380.4,359.8 377.5,368.8 "/>
<polygon id="polygon79" class="st8" points="413.1,385.2 420.7,390.8 417.8,399.8 425.4,394.2 433.1,399.8 430.2,390.8 437.8,385.2 
	428.4,385.2 425.4,376.3 422.5,385.2 "/>
<polygon id="polygon81" class="st8" points="323.1,345.2 330.7,350.8 327.8,359.8 335.4,354.2 343.1,359.8 340.2,350.8 347.8,345.2 
	338.4,345.2 335.4,336.3 332.5,345.2 "/>
<polygon id="polygon83" class="st8" points="323.1,385.2 330.7,390.8 327.8,399.8 335.4,394.2 343.1,399.8 340.2,390.8 347.8,385.2 
	338.4,385.2 335.4,376.3 332.5,385.2 "/>
<polygon id="polygon85" class="st8" points="368.1,408.8 375.7,414.3 372.8,423.3 380.4,417.7 388.1,423.3 385.2,414.3 392.8,408.8 
	383.4,408.8 380.4,399.8 377.5,408.8 "/>
<polygon id="polygon87" class="st8" points="413.1,425.2 420.7,430.8 417.8,439.8 425.4,434.2 433.1,439.8 430.2,430.8 437.8,425.2 
	428.4,425.2 425.4,416.3 422.5,425.2 "/>
<polygon id="polygon89" class="st8" points="278.1,368.8 285.7,374.3 282.8,383.3 290.4,377.7 298.1,383.3 295.2,374.3 302.8,368.8 
	293.4,368.8 290.4,359.8 287.5,368.8 "/>
<polygon id="polygon91" class="st8" points="237.9,368.8 245.6,374.3 242.7,383.3 250.3,377.7 257.9,383.3 255,374.3 262.7,368.8 
	253.2,368.8 250.3,359.8 247.4,368.8 "/>
<g id="Layer_5" transform="translate(-99,-105)">
	<path id="path94" inkscape:connector-curvature="0" class="st9" d="M349.3,341.5c-7.3,0-14,2.2-19.6,6c2.3-0.6,4.8-0.9,7.3-0.9
		c16.5,0,29.9,13.4,29.9,29.9s-13.4,29.9-29.9,29.9c-2.5,0-5-0.3-7.3-0.9c5.6,3.8,12.4,6,19.6,6c19.3,0,35-15.7,35-35
		S368.6,341.5,349.3,341.5z"/>
	<path id="path96" inkscape:connector-curvature="0" class="st10" d="M366.8,376.5c0-16.5-13.4-29.9-29.9-29.9c-2.5,0-5,0.3-7.3,0.9
		c-9.3,6.3-15.4,16.9-15.4,29s6.1,22.7,15.4,29c2.3,0.6,4.8,0.9,7.3,0.9C353.4,406.4,366.8,393,366.8,376.5z"/>
</g>
<g id="Layer_6" transform="translate(-99,-105)">
	<path id="path99" inkscape:connector-curvature="0" class="st11" d="M325.3,229.1c3.9-5.5,13.1-9.5,19.4,1.2
		c3,5.1-1.3,8.2-0.7,11.6c0.5,3,1.7,5.5,5.3,7.9c3.6,2.4-12.2,7.4-14,6.1c-1.1-0.7-5.2-1.4-7.1-7.5c-2.5-7.9,9.4-10.4,7.6-16.7
		C335,228.5,332.4,225.7,325.3,229.1L325.3,229.1z"/>
	<path id="path101" inkscape:connector-curvature="0" class="st11" d="M363.1,224.9c6.6-1.1,16,2.5,12.9,14.5
		c-1.5,5.7-6.7,4.9-8.7,7.7c-1.8,2.5-2.7,5.1-1.8,9.3c0.9,4.2-13.8-3.4-14.2-5.5c-0.2-1.3-2.7-4.6,0.3-10.3c3.9-7.3,14-0.7,17.2-6.5
		C370.3,231.2,370.4,227.5,363.1,224.9L363.1,224.9z"/>
	<path id="path103" inkscape:connector-curvature="0" class="st11" d="M392.7,248.5c5.5,3.9,9.5,13.1-1.2,19.4
		c-5.1,3-8.2-1.3-11.6-0.7c-3,0.5-5.5,1.7-7.9,5.3c-2.4,3.6-7.4-12.2-6.1-14c0.7-1.1,1.4-5.2,7.5-7.1c7.9-2.5,10.4,9.4,16.7,7.6
		C393.3,258.2,396.1,255.6,392.7,248.5L392.7,248.5z"/>
	<path id="path105" inkscape:connector-curvature="0" class="st11" d="M396.9,286.3c1.1,6.6-2.5,16-14.5,12.9
		c-5.7-1.5-4.9-6.7-7.7-8.7c-2.5-1.8-5.1-2.7-9.3-1.8c-4.2,0.9,3.4-13.8,5.5-14.2c1.3-0.2,4.6-2.7,10.3,0.3c7.3,3.9,0.7,14,6.5,17.2
		C390.6,293.5,394.3,293.6,396.9,286.3L396.9,286.3z"/>
	<path id="path107" inkscape:connector-curvature="0" class="st11" d="M373.3,315.9c-3.9,5.5-13.1,9.5-19.4-1.2
		c-3-5.1,1.3-8.2,0.7-11.6c-0.5-3-1.7-5.5-5.3-7.9c-3.6-2.4,12.2-7.4,14-6.1c1.1,0.7,5.2,1.4,7.1,7.5c2.5,7.9-9.4,10.4-7.6,16.7
		C363.6,316.5,366.2,319.3,373.3,315.9L373.3,315.9z"/>
	<path id="path109" inkscape:connector-curvature="0" class="st11" d="M335.5,320.1c-6.6,1.1-16-2.5-12.9-14.5
		c1.5-5.7,6.7-4.9,8.7-7.7c1.8-2.5,2.7-5.1,1.8-9.3c-0.9-4.2,13.8,3.4,14.2,5.5c0.2,1.3,2.7,4.6-0.3,10.3c-3.9,7.3-14,0.7-17.2,6.5
		C328.3,313.8,328.2,317.5,335.5,320.1L335.5,320.1z"/>
	<path id="path111" inkscape:connector-curvature="0" class="st11" d="M305.9,296.5c-5.5-3.9-9.5-13.1,1.2-19.4
		c5.1-3,8.2,1.3,11.6,0.7c3-0.5,5.5-1.7,7.9-5.3c2.4-3.6,7.4,12.2,6.1,14c-0.7,1.1-1.4,5.2-7.5,7.1c-7.9,2.5-10.4-9.4-16.7-7.6
		C305.3,286.8,302.5,289.4,305.9,296.5L305.9,296.5z"/>
	<path id="path113" inkscape:connector-curvature="0" class="st11" d="M301.7,258.7c-1.1-6.6,2.5-16,14.5-12.9
		c5.7,1.5,4.9,6.7,7.7,8.7c2.5,1.8,5.1,2.7,9.3,1.8c4.2-0.9-3.4,13.8-5.5,14.2c-1.3,0.2-4.6,2.7-10.3-0.3c-7.3-3.9-0.7-14-6.5-17.2
		C308,251.5,304.3,251.4,301.7,258.7L301.7,258.7z"/>
	<circle id="circle115" class="st12" cx="349.3" cy="272.5" r="24.5"/>
</g>
<g id="Ponies" transform="translate(-99,-105)">
	<path id="path180" inkscape:connector-curvature="0" class="st13" d="M233.4,362.7c-0.6-0.1-1.2-0.3-1.6-0.7
		c-0.4-0.5-0.5-1.1,0-1.6c0.9-0.9,2.5,0.4,3.1,1.1s0.6,1.8,0.3,2.6c-0.9,2-3.2,2.3-4.6,0.6c-1.1-1.4-1.7-3.8-1.1-5.6
		c0.6-1.6,3-2.5,4.5-2.3c1.2,0.1,2.8,0.9,3.6,1.8c1.8,2,0.9,5.7,0.4,8c-0.3,1.3-0.4,2.7-0.5,4.1c-0.1,1.3-0.1,2.6,0.1,3.9"/>
	<path id="path182" inkscape:connector-curvature="0" class="st13" d="M224.8,351.6c-0.7-0.2-2-0.8-1.8-1.7c0.1-0.8,1.1-1.2,1.8-0.8
		c0.4,0.2,0.9,0.8,1.1,1.3c0.3,0.8,0.5,2.8-0.3,3.4c-0.8,0.7-2.2,0.6-3,0.1c-1.7-1.1-3.2-3.3-2.5-5.4c0.4-1,0.9-2.1,1.8-2.7
		c1.4-0.9,3.8-0.4,5.1,0.5c1.4,1,2.3,2.5,2.3,4.3c0,1,0,2.1-0.1,3.1c-0.2,1-0.7,1.9-1,2.8s-0.2,2-0.1,3c0.1,0.8,0.3,1.8,0.9,2.4
		c0.2,0.2,0.3,0.3,0.5,0.5"/>
	<path id="path184" inkscape:connector-curvature="0" class="st13" d="M215.5,340.4c-0.7,0.3-1.4,0.2-1.9-0.5c-0.4-0.6-0.6-1.5,0-2
		c1.3-1,2.9-0.1,3.5,1.2c0.4,0.8,0.5,1.8,0.3,2.7c-0.2,0.8-0.5,1.8-1.4,2.2c-0.9,0.5-1.9-0.1-2.6-0.6c-1-0.7-1.9-1.8-2.2-3
		c-0.2-0.8-0.1-1.6,0-2.4c0-1.2,0.8-2.6,1.9-3.2c1-0.6,2.7-0.7,3.8-0.3c1.1,0.4,2.1,1.5,2.5,2.6c0.6,1.5,0.4,3.2,0.4,4.8
		c0,1.5,0,2.9-0.2,4.4c-0.1,1.2-0.4,2.5,0.3,3.6"/>
	<path id="path186" inkscape:connector-curvature="0" class="st14" d="M204.9,267.9c2.7-14.7,12.8-56,33.4-70.2
		c24.8-17,61.4-11.1,66.3-12.1s14.3-5.9,19.5-10.3c-8.7,12.9-28.8,23.5-40.7,28.1c-11.9,4.6-37.7,13.4-42.3,15.5
		s-25.3,13.2-27.9,36.6C210.8,279,203.3,275.7,204.9,267.9L204.9,267.9z"/>
	<path id="path188" inkscape:connector-curvature="0" class="st15" d="M302.4,400.2c-17.8-18.7-42.6-43.3-65-50.7
		c-22.5-7.5-8.1-17,3.4-10.3C252.3,345.8,295.9,384.8,302.4,400.2z"/>
	<polygon id="polygon190" class="st15" points="247.9,378.7 253.6,375.5 296.1,425 	"/>
	<path id="path192" inkscape:connector-curvature="0" class="st15" d="M151,284.4c-4.9,35.3,43.5,86.9,66.7,94.2
		c2.4-0.8-13.9-22.5-10.2-32.7c3.5-2.3,6.7,1.7,8.7,0.5c2.1-1.2-3.8-4-4.8-6.2s-14.7-20.6-12.6-1.2c-3-8.2-14.7-25.6-11.6-4.3
		c-4-15.7-21.8-38.4-14-9C163.2,314,156.2,280.2,151,284.4L151,284.4z"/>
	<path id="path194" inkscape:connector-curvature="0" class="st15" d="M264.5,232.3c-8.8,4.6-15.3,21.8-16.8,31.7
		c-1.5,9.9-8,20.5-12.9,19.4c-4.9-1-12.1-13.5-13.4-20.5c-1.3-6.9-5.7,2.6-3.9,7.5c1.8,5,6.5,24.5,19.4,24s16.5-32.3,16.8-35.1
		C253.9,256.5,257.3,240,264.5,232.3L264.5,232.3z"/>
	<path id="path196" inkscape:connector-curvature="0" class="st15" d="M306.8,196.6c-62.4,18.7-106.4,51.6-106.3,98.4
		c0,24.5,12.9,62.6,41,82.3l12.4,15c0,0-2.8-6-4-11.7c0,0,6.6-3.2,7.4-5.1c0.8-1.6-5.1-5.1-2.2-4.4c9.3,2.4-13.7-11.9-15.4-20.5
		c-0.4-1.9,7.3-12,6.3-18.2s-12.3-15.9-17.5-19c-16.5-9.9-12.5-45.7,2.6-63.5C251,226.4,288.5,205.4,306.8,196.6L306.8,196.6z"/>
	<path id="path198" inkscape:connector-curvature="0" class="st15" d="M232.2,337.3c15.2,8,27.2,8.2,32.3,5.4
		c8-4.4-12-25.5-23.7-31.7c5.3,7.1,19.8,20.6,19,25.8c-0.5,3.4-16.3-1-26.3-7.5"/>
	<path id="path200" inkscape:connector-curvature="0" class="st15" d="M249.6,380.4c4.5,2.8,29.9,13.5,32.2,13.5l-2.9-9.3
		c-2.1-0.9-12-8.6-14.4-12c-2.5-3.4-5-8.8-15.2-4.1"/>
	<line id="line202" class="st13" x1="273" y1="383" x2="279.4" y2="386.5"/>
	<path id="path204" inkscape:connector-curvature="0" class="st14" d="M264.5,380.3l-4.1-5.4l-1.7-0.1c-1.2,1.1-2.5,3-1.5,5.6
		C259.7,381.1,262.4,381,264.5,380.3z"/>
	<path id="path206" inkscape:connector-curvature="0" class="st16" d="M258.6,374.7l-9.4-0.6c2.1,3.4,4.9,5.4,7.9,6.3
		C256.1,377.7,257.5,375.8,258.6,374.7L258.6,374.7z"/>
	<path id="path208" inkscape:connector-curvature="0" class="st14" d="M237.5,370.6c0.1-1.4,0.2-2.7,0.5-4.1c0.5-2.3,1.4-5.9-0.4-8
		c-0.8-0.9-2.4-1.6-3.6-1.8c-1.6-0.2-4,0.7-4.5,2.3c-0.3,0.9-0.3,2,0,3.1l0.1,0.1l-0.1-0.1c0.2,0.9,0.6,1.8,1.2,2.5
		c1.3,1.7,3.7,1.4,4.6-0.6c0.4-0.9,0.3-1.9-0.3-2.6s-2.2-2-3.1-1.1c-0.5,0.4-0.3,1.1,0,1.6c0.4,0.5,1,0.7,1.6,0.7
		c-0.6-0.1-1.2-0.3-1.6-0.7c-0.4-0.5-0.5-1.1,0-1.6c0.9-0.9,2.5,0.4,3.1,1.1s0.6,1.8,0.3,2.6c-0.9,2-3.2,2.3-4.6,0.6
		c-0.5-0.7-0.9-1.5-1.2-2.5c-0.2-0.1-0.3-0.2-0.4-0.4c-0.6-0.6-0.8-1.6-0.9-2.4c-0.1-0.9-0.1-2.1,0.1-3c0.3-1,0.9-1.8,1-2.8
		c0.2-1,0.1-2.1,0.1-3.1c0-1.8-0.9-3.3-2.3-4.3c-1.3-0.9-3.7-1.4-5.1-0.5c-0.9,0.6-1.5,1.7-1.8,2.7c-0.1,0.4-0.2,0.8-0.2,1.2
		c0,0,0,0.1,0.1,0.1c0,0,0-0.1-0.1-0.1c0.1,1.7,1.3,3.3,2.7,4.1c0.8,0.5,2.2,0.6,3-0.1c0.7-0.6,0.6-2.6,0.3-3.4
		c-0.2-0.5-0.7-1-1.1-1.3c-0.7-0.4-1.7,0-1.8,0.8c-0.2,0.9,1.1,1.6,1.8,1.7c-0.7-0.2-2-0.8-1.8-1.7c0.1-0.8,1.1-1.2,1.8-0.8
		c0.4,0.2,0.9,0.8,1.1,1.3c0.3,0.8,0.5,2.8-0.3,3.4c-0.8,0.7-2.2,0.6-3,0.1c-1.3-0.8-2.6-2.5-2.7-4.1c-0.6-1.1-0.3-2.3-0.2-3.5
		c0.1-1.4,0.2-2.9,0.2-4.4c0-1.6,0.2-3.3-0.4-4.8c-0.4-1-1.5-2.2-2.5-2.6c-1.1-0.4-2.8-0.3-3.8,0.3c-1.1,0.6-1.8,1.9-1.9,3.2
		c0,0.7-0.1,1.3,0,2c0.4,0.8,0.8,1.7,1.2,2.5c0.3,0.3,0.7,0.7,1,0.9c0.7,0.5,1.7,1.1,2.6,0.6c0.8-0.4,1.1-1.4,1.4-2.2
		c0.2-0.9,0.2-1.8-0.3-2.7c-0.6-1.2-2.3-2.2-3.5-1.2c-0.6,0.5-0.5,1.4,0,2c0.5,0.7,1.1,0.7,1.9,0.5c-0.7,0.3-1.4,0.2-1.9-0.5
		c-0.4-0.6-0.6-1.5,0-2c1.3-1,2.9-0.1,3.5,1.2c0.4,0.8,0.5,1.8,0.3,2.7c-0.2,0.8-0.5,1.8-1.4,2.2c-0.9,0.5-1.9-0.1-2.6-0.6
		c-0.4-0.3-0.7-0.6-1-0.9c6,12,14.3,23.3,25,31.9C237.4,373.1,237.4,371.9,237.5,370.6L237.5,370.6z"/>
	<path id="path210" inkscape:connector-curvature="0" class="st13" d="M441.8,237.5c0.6,0.1,1.2,0.3,1.6,0.7c0.4,0.5,0.5,1.1,0,1.6
		c-0.9,0.9-2.5-0.4-3.1-1.1s-0.6-1.8-0.3-2.6c0.9-2,3.2-2.3,4.6-0.6c1.1,1.4,1.7,3.9,1.1,5.6c-0.6,1.6-3,2.5-4.5,2.3
		c-1.2-0.1-2.8-0.9-3.6-1.8c-1.8-2-0.9-5.7-0.4-8c0.3-1.3,0.4-2.7,0.5-4.1c0.1-1.3,0.1-2.6-0.1-3.9"/>
	<path id="path212" inkscape:connector-curvature="0" class="st13" d="M450.4,248.6c0.7,0.2,2,0.8,1.8,1.7c-0.1,0.8-1.1,1.2-1.8,0.8
		c-0.4-0.2-0.9-0.8-1.1-1.3c-0.3-0.8-0.5-2.8,0.3-3.4c0.8-0.7,2.2-0.6,3-0.1c1.7,1.1,3.2,3.3,2.5,5.4c-0.4,1-0.9,2.1-1.8,2.7
		c-1.4,0.9-3.8,0.4-5.1-0.5c-1.4-1-2.3-2.5-2.3-4.3c0-1,0-2.1,0.1-3.1c0.2-1,0.8-1.9,1-2.8c0.3-0.9,0.2-2,0.1-3
		c-0.1-0.8-0.3-1.8-0.9-2.4c-0.2-0.2-0.3-0.3-0.5-0.5"/>
	<path id="path214" inkscape:connector-curvature="0" class="st13" d="M459.7,259.8c0.7-0.3,1.4-0.2,1.9,0.5c0.4,0.6,0.6,1.5,0,2
		c-1.3,1-2.9,0.1-3.5-1.2c-0.4-0.8-0.5-1.8-0.3-2.7c0.2-0.8,0.5-1.8,1.4-2.2c0.9-0.5,1.9,0.1,2.6,0.6c1,0.7,1.9,1.8,2.2,3
		c0.2,0.8,0.1,1.6,0,2.4c0,1.2-0.8,2.6-1.9,3.2c-1,0.6-2.7,0.7-3.8,0.3c-1.1-0.4-2.1-1.5-2.5-2.6c-0.6-1.5-0.4-3.2-0.4-4.8
		c0-1.5,0-2.9,0.2-4.4c0.1-1.2,0.4-2.5-0.3-3.6"/>
	<path id="path216" inkscape:connector-curvature="0" class="st17" d="M470.3,332.4c-2.7,14.7-12.8,56-33.4,70.2
		c-24.8,17-61.4,11.1-66.3,12.1c-4.9,1-14.3,5.9-19.5,10.3c8.7-12.9,28.8-23.5,40.7-28.1c11.9-4.6,37.7-13.4,42.3-15.5
		c4.6-2.1,25.3-13.2,27.9-36.6C464.4,321.3,471.9,324.6,470.3,332.4L470.3,332.4z"/>
	<path id="path218" inkscape:connector-curvature="0" class="st18" d="M372.8,200.1c17.8,18.7,42.6,43.3,65,50.7
		c22.5,7.5,8.1,17-3.4,10.3S379.3,215.4,372.8,200.1z"/>
	<polygon id="polygon220" class="st18" points="427.3,221.6 421.6,224.8 379.1,175.2 	"/>
	<path id="path222" inkscape:connector-curvature="0" class="st18" d="M524.2,315.8c4.9-35.3-43.5-86.9-66.7-94.2
		c-2.4,0.8,13.9,22.5,10.2,32.7c-3.5,2.3-6.7-1.7-8.7-0.5c-2.1,1.2,3.8,4,4.8,6.2s14.7,20.6,12.6,1.2c3,8.2,14.7,25.6,11.6,4.3
		c4,15.7,21.8,38.4,14,9C512,286.3,519,320,524.2,315.8z"/>
	<path id="path224" inkscape:connector-curvature="0" class="st18" d="M410.7,368c8.8-4.6,15.3-21.8,16.8-31.7
		c1.5-9.9,8-20.5,12.9-19.4c4.9,1,12.1,13.5,13.4,20.5c1.3,6.9,5.7-2.6,3.9-7.5c-1.8-5-6.5-24.5-19.4-24s-16.5,32.3-16.8,35.1
		C421.3,343.7,417.9,360.3,410.7,368z"/>
	<path id="path226" inkscape:connector-curvature="0" class="st18" d="M368.4,403.6c62.4-18.7,106.4-51.6,106.3-98.4
		c0-24.5-12.9-62.6-41-82.3l-12.4-15c0,0,2.8,6,4,11.7c0,0-6.6,3.2-7.4,5.1c-0.8,1.6,5.1,5.1,2.2,4.4c-9.3-2.4,13.7,11.9,15.4,20.5
		c0.4,1.9-7.3,12-6.3,18.2s12.3,15.9,17.5,19c16.5,9.9,12.5,45.7-2.6,63.5C424.2,373.9,386.7,394.8,368.4,403.6L368.4,403.6z"/>
	<path id="path228" inkscape:connector-curvature="0" class="st18" d="M443,263c-15.2-8-27.2-8.2-32.3-5.4c-8,4.4,12,25.5,23.7,31.7
		c-5.3-7.1-19.8-20.6-19-25.8c0.5-3.4,16.3,1,26.3,7.5"/>
	<path id="path230" inkscape:connector-curvature="0" class="st18" d="M425.6,219.9c-4.5-2.8-29.9-13.5-32.2-13.5l2.9,9.3
		c2.1,0.9,12,8.6,14.4,12c2.5,3.4,5,8.8,15.2,4.1"/>
	<line id="line232" class="st13" x1="401.9" y1="216.7" x2="395.5" y2="213.2"/>
	<path id="path234" inkscape:connector-curvature="0" class="st17" d="M410.7,220l4.1,5.4l1.7,0.1c1.2-1.1,2.5-3,1.5-5.6
		C415.5,219.1,412.8,219.2,410.7,220L410.7,220z"/>
	<path id="path236" inkscape:connector-curvature="0" class="st16" d="M416.6,225.5l9.4,0.6c-2.1-3.4-4.9-5.4-7.9-6.3
		C419.1,222.5,417.7,224.4,416.6,225.5z"/>
	<path id="path238" inkscape:connector-curvature="0" class="st17" d="M437.7,229.6c-0.1,1.4-0.2,2.7-0.5,4.1
		c-0.5,2.3-1.4,5.9,0.4,8c0.8,0.9,2.4,1.6,3.6,1.8c1.6,0.2,4-0.7,4.5-2.3c0.3-0.9,0.3-2,0-3.1l-0.1-0.1l0.1,0.1
		c-0.2-0.9-0.6-1.8-1.2-2.5c-1.3-1.7-3.7-1.4-4.6,0.6c-0.4,0.9-0.3,1.9,0.3,2.6c0.6,0.7,2.2,2,3.1,1.1c0.5-0.4,0.3-1.1,0-1.6
		c-0.4-0.5-1-0.7-1.6-0.7c0.6,0.1,1.2,0.3,1.6,0.7c0.4,0.5,0.5,1.1,0,1.6c-0.9,0.9-2.5-0.4-3.1-1.1s-0.6-1.8-0.3-2.6
		c0.9-2,3.2-2.3,4.6-0.6c0.5,0.7,0.9,1.5,1.2,2.5c0.2,0.1,0.3,0.2,0.4,0.4c0.6,0.6,0.8,1.6,0.9,2.4c0.1,0.9,0.1,2.1-0.1,3
		c-0.3,1-0.9,1.8-1,2.8c-0.2,1-0.1,2.1-0.1,3.1c0,1.8,0.9,3.3,2.3,4.3c1.3,0.9,3.7,1.4,5.1,0.5c0.9-0.6,1.5-1.7,1.8-2.7
		c0.1-0.4,0.2-0.8,0.2-1.2c0,0,0-0.1-0.1-0.1c0,0,0,0.1,0.1,0.1c-0.1-1.7-1.3-3.3-2.7-4.1c-0.8-0.5-2.2-0.6-3,0.1
		c-0.7,0.6-0.6,2.6-0.3,3.4c0.2,0.5,0.7,1,1.1,1.3c0.7,0.4,1.7,0,1.8-0.8c0.2-0.9-1.1-1.6-1.8-1.7c0.7,0.2,2,0.8,1.8,1.7
		c-0.1,0.8-1.1,1.2-1.8,0.8c-0.4-0.2-0.9-0.8-1.1-1.3c-0.3-0.8-0.5-2.8,0.3-3.4c0.8-0.7,2.2-0.6,3-0.1c1.3,0.8,2.6,2.5,2.7,4.1
		c0.6,1.1,0.3,2.3,0.2,3.5c-0.1,1.4-0.2,2.9-0.2,4.4c0,1.6-0.2,3.3,0.4,4.8c0.4,1,1.5,2.2,2.5,2.6c1.1,0.4,2.8,0.3,3.8-0.3
		c1.1-0.6,1.8-1.9,1.9-3.2c0-0.7,0.1-1.3,0-2c-0.4-0.8-0.8-1.7-1.2-2.5c-0.3-0.3-0.7-0.7-1-0.9c-0.7-0.5-1.7-1.1-2.6-0.6
		c-0.8,0.4-1.1,1.4-1.4,2.2c-0.2,0.9-0.2,1.8,0.3,2.7c0.6,1.2,2.3,2.2,3.5,1.2c0.6-0.5,0.5-1.4,0-2c-0.5-0.7-1.1-0.7-1.9-0.5
		c0.7-0.3,1.4-0.2,1.9,0.5c0.4,0.6,0.6,1.5,0,2c-1.3,1-2.9,0.1-3.5-1.2c-0.4-0.8-0.5-1.8-0.3-2.7c0.2-0.8,0.5-1.8,1.4-2.2
		c0.9-0.5,1.9,0.1,2.6,0.6c0.4,0.3,0.7,0.6,1,0.9c-6-12-14.3-23.3-25-31.9C437.8,227.1,437.8,228.4,437.7,229.6L437.7,229.6z"/>
</g>
<path id="path256" inkscape:connector-curvature="0" class="st8" d="M454.8,21v450.5L256.5,407l-6.2-2l-6.2,2L45.8,471.5V21H454.8
	 M474.8,1h-449v498l224.5-73l224.5,73V1z"/>
<polygon id="polygon648" class="st8" points="327.8,101.3 335.4,95.7 343.1,101.3 340.2,92.3 347.8,86.7 338.4,86.7 335.4,77.8 
	332.5,86.7 323.1,86.7 330.7,92.3 "/>
<polygon id="polygon650" class="st8" points="415.3,265.3 405.9,265.3 402.9,256.3 400,265.3 390.6,265.3 398.2,270.8 395.3,279.8 
	402.9,274.2 410.6,279.8 407.7,270.8 "/>
<polygon id="polygon652" class="st8" points="77.8,181.3 80.7,172.3 73.1,166.7 82.5,166.7 85.5,157.8 88.4,166.7 97.8,166.7 
	90.2,172.3 93.1,181.3 85.5,175.7 "/>
<linearGradient id="SVGID_1_" gradientUnits="userSpaceOnUse" x1="241.545" y1="453.6308" x2="241.545" y2="333.2225">
	<stop  offset="0" style="stop-color:#DB8BF3"/>
	<stop  offset="1" style="stop-color:#915CA0"/>
</linearGradient>
<path class="st19" d="M81.5,453.6c-4.7,0-8.4-1.4-11.1-4.1c-2.8-2.7-4.1-6.4-4.1-11.1c0-4.7,1.4-8.4,4.1-11.1
	c2.8-2.8,6.5-4.1,11.1-4.1c4.7,0,8.4,1.4,11.1,4.1c2.8,2.8,4.1,6.5,4.1,11.1c0,4.7-1.4,8.4-4.1,11.1
	C89.9,452.3,86.2,453.6,81.5,453.6z M171.5,453.6c-8.9,0-16.1-3.1-21.6-9.3c-5.5-6.2-8.2-14.5-8.2-24.9v-24.2
	c0-10.5,2.7-18.9,8.1-25.1c5.4-6.2,12.6-9.3,21.6-9.3c7.4,0,13.2,2.1,17.6,6.3c4.3,4.2,6.5,9.9,6.5,17.2l-4.6-4.7h4.7l-0.7-21.3
	v-25.1h20.3V452h-19.8v-17.1H191l4.6-4.7c0,7.3-2.2,13-6.5,17.2C184.7,451.5,178.9,453.6,171.5,453.6z M178.7,436.1
	c5.2,0,9.2-1.5,12.1-4.6c2.9-3.1,4.3-7.4,4.3-12.9V396c0-5.5-1.4-9.8-4.3-12.9c-2.9-3.1-6.9-4.6-12.1-4.6c-5.2,0-9.3,1.5-12.2,4.6
	c-2.9,3-4.4,7.4-4.4,13v22.5c0,5.6,1.5,10,4.4,13C169.4,434.5,173.5,436.1,178.7,436.1z M276.9,453.6c-7.6,0-14.2-1.5-19.8-4.4
	c-5.6-2.9-10-7-13.1-12.3c-3.1-5.3-4.6-11.4-4.6-18.5V396c0-7.1,1.5-13.2,4.6-18.5c3.1-5.3,7.5-9.4,13.1-12.3
	c5.6-2.9,12.3-4.4,19.8-4.4c7.5,0,14,1.5,19.6,4.4c5.6,2.9,9.9,7,13,12.3c3.1,5.3,4.6,11.4,4.6,18.5v16.1H259v6.3
	c0,6.3,1.5,11,4.6,14.2c3,3.2,7.5,4.8,13.5,4.8c4.6,0,8.2-0.8,11.1-2.4c2.8-1.6,4.6-3.9,5.4-6.9h20c-1.5,7.7-5.6,13.9-12.3,18.5
	C294.6,451.3,286.5,453.6,276.9,453.6z M294.5,400.7v-4.9c0-6.2-1.5-10.9-4.4-14.2c-2.9-3.3-7.3-5-13.2-5c-5.9,0-10.3,1.7-13.3,5
	c-3,3.4-4.6,8.1-4.6,14.3v3.4l36.9-0.3L294.5,400.7z M361.4,452l-29.5-89.5h20.8l17.1,54.3c1,3.3,1.9,6.6,2.8,10.1
	c0.9,3.5,1.6,6.2,2,8.3c0.5-2.1,1.2-4.8,2.1-8.3c0.9-3.5,1.7-6.8,2.6-9.9l16.8-54.5h20.7L387.6,452H361.4z"/>
</svg>
