<?xml version="1.0" encoding="utf-8"?>
<!-- Generator: Adobe Illustrator 26.2.1, SVG Export Plug-In . SVG Version: 6.00 Build 0)  -->
<svg version="1.1" xmlns="http://www.w3.org/2000/svg" xmlns:xlink="http://www.w3.org/1999/xlink" x="0px" y="0px"
	 viewBox="0 0 1024 1024" style="enable-background:new 0 0 1024 1024;" xml:space="preserve">
<style type="text/css">
	.st0{fill:#DADADA;}
	.st1{display:none;fill:url(#SVGID_1_);}
	.st2{fill:url(#SVGID_00000103261086656968410980000004326318070872975519_);}
</style>
<g id="Layer_3">
	<rect class="st0" width="1024" height="1024"/>
</g>
<g id="Layer_2">
	<linearGradient id="SVGID_1_" gradientUnits="userSpaceOnUse" x1="205.5816" y1="483.3828" x2="818.4184" y2="483.3828">
		<stop  offset="0" style="stop-color:#82BE5E"/>
		<stop  offset="1" style="stop-color:#A5CE8C"/>
	</linearGradient>
	<path class="st1" d="M512,786.4L205.58,548.07l42.56-31.49L512,721.71l263.86-205.13l42.56,31.49L512,786.4z M512,657.02
		L205.58,418.69L512,180.37l306.42,238.33L512,657.02z M512,592.33l223-173.64L512,245.06L289,418.69L512,592.33z"/>
	
		<linearGradient id="SVGID_00000173121098906812001990000005088235249344127900_" gradientUnits="userSpaceOnUse" x1="509.2812" y1="268.5851" x2="509.2812" y2="762.0175">
		<stop  offset="0" style="stop-color:#5F6BB0"/>
		<stop  offset="1" style="stop-color:#969ACD"/>
	</linearGradient>
	<path style="fill:url(#SVGID_00000173121098906812001990000005088235249344127900_);" d="M324.24,762.02
		c-33.92,0-62.96-12.08-87.12-36.24c-24.16-24.16-36.24-53.2-36.24-87.12V391.94c0-33.92,12.08-62.96,36.24-87.12
		s53.2-36.24,87.12-36.24h370.07c33.92,0,62.96,12.08,87.12,36.24c24.16,24.16,36.24,53.2,36.24,87.12v246.72
		c0,33.92-12.08,62.96-36.24,87.12c-24.16,24.16-53.2,36.24-87.12,36.24H324.24z M324.24,399.65h370.07
		c14.91,0,28.91,2.31,42.02,6.94c13.11,4.63,24.8,11.31,35.08,20.05v-34.69c0-21.59-7.45-39.83-22.36-54.74
		c-14.91-14.91-33.15-22.36-54.74-22.36H324.24c-21.59,0-39.83,7.45-54.74,22.36c-14.91,14.91-22.36,33.15-22.36,54.74v34.69
		c10.28-8.74,21.97-15.42,35.08-20.05C295.33,401.97,309.34,399.65,324.24,399.65z M249.46,504.51l367.76,88.66
		c3.6,1.03,7.32,1.16,11.18,0.39c3.85-0.77,7.07-2.44,9.64-5.01l123.36-103.31c-6.68-11.82-15.93-21.33-27.76-28.53
		c-11.82-7.2-24.93-10.79-39.32-10.79H324.24c-17.99,0-33.92,5.53-47.8,16.58C262.57,473.54,253.57,487.55,249.46,504.51z"/>
</g>
</svg>
